<svg width="82" height="81" viewBox="0 0 82 81" fill="none" xmlns="http://www.w3.org/2000/svg">
<path d="M43.5922 55.2637C44.9851 56.0172 46.0584 56.6109 47.3143 57.3188C47.4513 56.1314 47.6111 55.1495 46.9261 54.1904C45.6473 52.4322 44.3914 50.6739 43.1812 48.87C42.9529 48.5275 42.7474 48.048 42.7702 47.6369C42.9072 44.4401 43.0899 41.2661 43.2497 38.0693C43.2497 37.8866 43.3411 37.7268 43.4096 37.3614C47.5198 39.5307 51.5158 41.6315 55.7402 43.8464C55.7402 42.7047 55.763 41.7685 55.7174 40.8551C55.7174 40.6496 55.4662 40.4212 55.2835 40.2614C54.1874 39.3937 53.0229 38.5716 51.9725 37.6583C51.63 37.3614 51.4473 36.8134 51.2646 36.3567C51.0591 35.9 51.0591 35.215 50.7394 35.0323C50.4654 34.8725 49.8717 35.2835 49.278 35.489C48.2733 34.8953 47.2458 34.1418 47.5198 32.4977C47.5654 32.2237 47.1544 31.8583 46.9489 31.5386C46.5151 31.8126 46.0812 32.0867 45.5103 32.4748C44.2544 31.6071 42.9072 30.6937 42.8844 28.4331C42.8615 25.9213 42.245 23.3867 41.8111 20.8749C41.697 20.2127 41.3088 19.5962 41.0348 18.934C40.8749 18.934 40.7379 18.934 40.5781 18.934C40.3269 19.7332 39.9616 20.5096 39.8245 21.3088C39.4592 23.8206 39.1167 26.3552 38.9112 28.8898C38.8198 30.0087 38.523 30.8308 37.5639 31.4701C36.9246 31.8811 36.3994 32.4292 35.7372 32.9544C35.6687 32.726 35.6458 32.5433 35.5545 32.4748C35.2805 32.2237 34.9836 32.0181 34.6868 31.767C34.4813 32.0638 34.0474 32.3835 34.0703 32.6575C34.1844 33.9819 33.8419 34.9866 32.5175 35.5118C31.1246 34.7811 30.9191 34.9181 30.7364 36.5394C30.6907 36.9047 30.4396 37.3158 30.1656 37.5669C29.0467 38.5488 27.8821 39.4622 26.7404 40.4212C26.5349 40.6039 26.3065 40.8779 26.3065 41.1291C26.2609 42.0197 26.2837 42.933 26.2837 44.0976C30.3939 41.8141 34.3443 39.622 38.4088 37.3386C38.4545 37.8181 38.5001 38.1378 38.523 38.4575C38.7057 41.3803 38.9112 44.3031 39.0253 47.2259C39.0482 47.8425 38.8883 48.5732 38.5458 49.1212C37.5868 50.7196 36.5592 52.2952 35.4403 53.7794C34.6183 54.8526 34.5498 55.9944 34.7781 57.4786C35.9427 56.7936 36.9931 56.1999 38.3175 55.4235C38.0663 56.4282 37.9064 57.1818 37.7009 57.9125C35.9198 64.192 33.7277 70.3116 29.7545 75.6092C29.0923 76.4769 28.3388 77.299 27.5853 78.0982C25.9183 79.9021 23.7947 80.747 21.3743 80.747C15.6656 80.7698 9.95703 80.7926 4.2484 80.747C0.754725 80.7241 -1.00353 77.6186 0.594884 74.4903C9.61451 56.8849 18.6341 39.3023 27.6538 21.697C30.8049 15.5773 33.9561 9.45767 37.0844 3.31519C37.9064 1.69394 39.0938 0.643555 40.9891 0.643555C42.9072 0.643555 44.0946 1.71678 44.9395 3.40653C49.3237 12.038 53.7993 20.6466 58.2291 29.278C65.9472 44.3031 73.6424 59.3282 81.3377 74.3533C83.0731 77.7556 81.2691 80.7241 77.433 80.747C72.455 80.7698 67.4543 80.5643 62.4764 80.8155C57.9551 81.0438 54.7811 79.1714 52.2237 75.6549C48.5017 70.5628 46.2867 64.8085 44.5513 58.8258C44.2316 57.7526 43.9576 56.6566 43.5922 55.2637Z" fill="white"/>
</svg>
