<svg width="24" height="18" viewBox="0 0 24 18" fill="none" xmlns="http://www.w3.org/2000/svg">
<path d="M3.0236 15C2.34242 15 1.80061 14.5285 1.31413 13.8691C0.318262 12.5194 1.95334 11.4408 2.57695 10.9126C3.21089 10.3756 3.91871 10.0714 4.63637 10M5.09091 8C3.83572 8 2.81818 6.88071 2.81818 5.5C2.81818 4.11929 3.83572 3 5.09091 3M7.4398 12.1112C9.61803 10.6296 12.3819 10.6296 14.5602 12.1112C15.489 12.743 17.9245 14.0331 16.4412 15.6474C15.7165 16.436 14.9095 17 13.8949 17H8.10509C7.09045 17 6.28341 16.436 5.55879 15.6474C4.07541 14.0331 6.51091 12.743 7.4398 12.1112ZM14.1818 4.5C14.1818 6.433 12.7572 8 11 8C9.24271 8 7.81816 6.433 7.81816 4.5C7.81816 2.567 9.24271 1 11 1C12.7572 1 14.1818 2.567 14.1818 4.5Z" stroke="#2A353D" stroke-width="1.5" stroke-linecap="round"/>
<path d="M23.239 3.28405C22.4344 2.81406 21.7322 3.00346 21.3104 3.30516C21.1375 3.42886 21.051 3.49071 21.0001 3.49071C20.9492 3.49071 20.8627 3.42886 20.6898 3.30516C20.268 3.00346 19.5658 2.81406 18.7613 3.28405C17.7054 3.90087 17.4665 5.93577 19.9019 7.65255C20.3658 7.97954 20.5977 8.14304 21.0001 8.14304C21.4025 8.14304 21.6344 7.97954 22.0983 7.65255C24.5337 5.93577 24.2948 3.90087 23.239 3.28405Z" fill="#5282FF"/>
</svg>
