<svg width="23" height="19" viewBox="0 0 23 19" fill="none" xmlns="http://www.w3.org/2000/svg">
<path d="M12.4778 3.18972C12.4517 3.227 12.4261 3.26235 12.4052 3.29118C12.402 3.29555 12.3989 3.29976 12.396 3.30381C12.3696 3.34027 12.3462 3.37274 12.3206 3.41012L11.5539 4.52839L10.712 3.46563C10.7037 3.45511 10.6921 3.44082 10.6787 3.42413C10.6403 3.37661 10.5863 3.30963 10.5455 3.25462L10.5401 3.24736L10.5401 3.24734C9.45503 1.75846 8.07185 1.00186 6.30402 1.02045L6.30178 1.02047C5.11506 1.03029 4.14814 1.31929 3.36765 1.83543C2.58608 2.35229 1.9313 3.1368 1.4343 4.23251C0.825979 5.58483 0.868057 6.96363 1.48956 8.37253L1.4918 8.37761L1.49179 8.37762C2.0642 9.69499 2.92697 10.843 3.96299 11.9319L3.96416 11.9331C6.04569 14.1283 8.46811 15.9303 11.076 17.5477C11.218 17.6314 11.3649 17.7179 11.5131 17.8072C14.2682 16.1606 16.8287 14.2955 19.0225 11.9977L19.0236 11.9965C20.0673 10.907 20.9334 9.76233 21.4968 8.43706L21.497 8.43643C21.7603 7.81825 21.9251 7.23341 21.9563 6.63167C21.9603 6.49409 21.9869 6.38043 22 6.32817V6.20906C21.9795 6.07561 21.9649 5.9651 21.9517 5.86537C21.9283 5.68784 21.9094 5.5445 21.8694 5.36678L21.8654 5.34876L21.862 5.33062C21.6186 4.02622 20.9797 2.97021 19.9467 2.142L19.9466 2.14187C18.8559 1.26704 17.6293 0.898575 16.2583 1.02377L12.4778 3.18972ZM12.4778 3.18972C13.4443 1.88731 14.6929 1.16758 16.2579 1.02381L12.4778 3.18972Z" stroke="#5282FF" stroke-width="2"/>
</svg>
