<svg width="20" height="22" viewBox="0 0 20 22" fill="none" xmlns="http://www.w3.org/2000/svg">
<path d="M11.43 20.4796C11.004 20.8775 10.4346 21.1 9.84196 21.1C9.24936 21.1 8.67994 20.8775 8.25392 20.4796C4.35267 16.8134 -0.875479 12.718 1.67413 6.77207C3.05269 3.55717 6.36183 1.5 9.84196 1.5C13.3221 1.5 16.6312 3.55717 18.0098 6.77207C20.5562 12.7105 15.3409 16.8261 11.43 20.4796Z" stroke="#5282FF" stroke-width="1.60363"/>
<path d="M13.279 10.3199C13.279 12.2143 11.7397 13.7499 9.84089 13.7499C7.94208 13.7499 6.40278 12.2143 6.40278 10.3199C6.40278 8.42561 7.94208 6.88995 9.84089 6.88995C11.7397 6.88995 13.279 8.42561 13.279 10.3199Z" stroke="#5282FF" stroke-width="1.60363"/>
</svg>
