<svg width="18" height="18" viewBox="0 0 18 18" fill="none" xmlns="http://www.w3.org/2000/svg">
<path d="M9 16.3067V15.5067L8.99898 15.5067L9 16.3067ZM2.72089 16.9144L2.10015 16.4097C1.92209 16.6287 1.87263 16.9254 1.96998 17.1903C2.06733 17.4552 2.2971 17.6493 2.5746 17.7009L2.72089 16.9144ZM3.59022 15.0358L4.37609 15.1855L4.37635 15.1842L3.59022 15.0358ZM3.17511 13.8985L3.74514 13.3372L3.74511 13.3371L3.17511 13.8985ZM7.45233 16.1636L7.30467 16.9498L7.45233 16.1636ZM6.09999 16.3891L6.47561 17.0954L6.09999 16.3891ZM8.99641 8.2C8.55458 8.2 8.19641 8.55817 8.19641 9C8.19641 9.44183 8.55458 9.8 8.99641 9.8V8.2ZM9.00359 9.8C9.44542 9.8 9.80359 9.44183 9.80359 9C9.80359 8.55817 9.44542 8.2 9.00359 8.2V9.8ZM12.1928 8.2C11.751 8.2 11.3928 8.55817 11.3928 9C11.3928 9.44183 11.751 9.8 12.1928 9.8V8.2ZM12.2 9.8C12.6418 9.8 13 9.44183 13 9C13 8.55817 12.6418 8.2 12.2 8.2V9.8ZM5.8 8.2C5.35817 8.2 5 8.55817 5 9C5 9.44183 5.35817 9.8 5.8 9.8V8.2ZM5.80718 9.8C6.24901 9.8 6.60718 9.44183 6.60718 9C6.60718 8.55817 6.24901 8.2 5.80718 8.2V9.8ZM16.2 8.65337C16.2 12.405 13.0097 15.5067 9 15.5067V17.1067C13.8258 17.1067 17.8 13.3548 17.8 8.65337H16.2ZM8.99898 15.5067C8.52953 15.5073 8.06135 15.464 7.59999 15.3773L7.30467 16.9498C7.86384 17.0548 8.43157 17.1075 9.00102 17.1067L8.99898 15.5067ZM3.34162 17.419C3.86471 16.7757 4.21969 16.0066 4.37609 15.1855L2.80435 14.8861C2.69671 15.4513 2.45328 15.9754 2.10015 16.4097L3.34162 17.419ZM4.37635 15.1842C4.5217 14.4139 4.15201 13.7504 3.74514 13.3372L2.60509 14.4598C2.79199 14.6496 2.81874 14.8099 2.8041 14.8875L4.37635 15.1842ZM3.74511 13.3371C2.53453 12.1079 1.8 10.4608 1.8 8.65337H0.2C0.2 10.9073 1.11881 12.9506 2.60511 14.4598L3.74511 13.3371ZM1.8 8.65337C1.8 4.90172 4.99027 1.8 9 1.8V0.2C4.17417 0.2 0.2 3.95199 0.2 8.65337H1.8ZM9 1.8C13.0097 1.8 16.2 4.90172 16.2 8.65337H17.8C17.8 3.95199 13.8258 0.2 9 0.2V1.8ZM5.72436 15.6828C4.85314 16.1461 3.83826 16.3085 2.86718 16.1279L2.5746 17.7009C3.90886 17.9491 5.29108 17.7254 6.47561 17.0954L5.72436 15.6828ZM7.59999 15.3773C7.42451 15.3444 7.2639 15.314 7.13187 15.2958C7.00414 15.2783 6.83348 15.2612 6.65244 15.2889L6.89401 16.8705C6.84116 16.8786 6.82642 16.8689 6.91439 16.881C6.99804 16.8925 7.11288 16.9138 7.30467 16.9498L7.59999 15.3773ZM6.47561 17.0954C6.66417 16.9952 6.78147 16.933 6.868 16.8919C6.96355 16.8465 6.95233 16.8616 6.89401 16.8705L6.65244 15.2889C6.46592 15.3173 6.29975 15.3905 6.18157 15.4466C6.05438 15.5071 5.89916 15.5898 5.72436 15.6828L6.47561 17.0954ZM8.99641 9.8H9.00359V8.2H8.99641V9.8ZM12.1928 9.8H12.2V8.2H12.1928V9.8ZM5.8 9.8H5.80718V8.2H5.8V9.8Z" fill="#2A353D"/>
</svg>
