<svg width="78" height="26" viewBox="0 0 78 26" fill="none" xmlns="http://www.w3.org/2000/svg">
<path d="M0 0H73C75.7614 0 78 2.23858 78 5V21C78 23.7614 75.7614 26 73 26H0V0Z" fill="#FF0000"/>
<path d="M18.1926 11.358H13.4326V7.2H12.1306V17H13.4326V12.59H18.1926V17H19.4806V7.2H18.1926V11.358ZM27.3598 16.118C28.0738 15.404 28.4378 14.536 28.4378 13.5C28.4378 12.464 28.0738 11.596 27.3598 10.882C26.6458 10.168 25.7638 9.818 24.7418 9.818C23.7198 9.818 22.8378 10.168 22.1238 10.882C21.4098 11.596 21.0598 12.464 21.0598 13.5C21.0598 14.536 21.4098 15.404 22.1238 16.118C22.8378 16.832 23.7198 17.182 24.7418 17.182C25.7638 17.182 26.6458 16.832 27.3598 16.118ZM24.7418 15.992C24.0558 15.992 23.4678 15.754 22.9918 15.278C22.5158 14.802 22.2778 14.214 22.2778 13.5C22.2778 12.786 22.5158 12.198 22.9918 11.722C23.4678 11.246 24.0558 11.008 24.7418 11.008C25.4418 11.008 26.0298 11.246 26.5058 11.722C26.9818 12.198 27.2198 12.786 27.2198 13.5C27.2198 14.214 26.9818 14.802 26.5058 15.278C26.0298 15.754 25.4418 15.992 24.7418 15.992ZM34.5357 13.402C35.0397 13.08 35.2917 12.576 35.2917 11.904C35.2917 10.77 34.4937 10 33.0937 10H29.8737V17H33.3737C34.8157 17 35.6137 16.188 35.6137 15.026C35.6137 14.242 35.2497 13.696 34.5357 13.402ZM33.0377 11.092C33.7517 11.092 34.1017 11.386 34.1017 11.988C34.1017 12.618 33.7517 12.926 33.0377 12.926H31.0637V11.092H33.0377ZM31.0637 15.894V14.004H33.3037C34.0177 14.004 34.4097 14.354 34.4097 14.928C34.4097 15.544 34.0177 15.894 33.3037 15.894H31.0637ZM38.1324 14.914V10H36.9284V17H37.9084L41.7864 12.086V17H42.9904V10H42.0104L38.1324 14.914ZM49.6884 12.912H46.0624V10H44.8444V17H46.0624V14.074H49.6884V17H50.9064V10H49.6884V12.912ZM55.2244 13.388L58.5704 10H57.0024L53.9784 13.094V10H52.7604V17H53.9784V13.682L57.1704 17H58.6824L55.2244 13.388ZM64.9685 11.204C64.3665 10.28 63.4845 9.818 62.3225 9.818C61.3425 9.818 60.5025 10.182 59.8165 10.896C59.1305 11.61 58.7805 12.478 58.7805 13.5C58.7805 14.522 59.1305 15.404 59.8165 16.118C60.5025 16.832 61.3425 17.182 62.3225 17.182C63.4845 17.182 64.3665 16.72 64.9685 15.796V17H66.1865V10H64.9685V11.204ZM62.4765 16.006C61.7765 16.006 61.1885 15.768 60.7125 15.292C60.2365 14.802 59.9985 14.214 59.9985 13.5C59.9985 12.786 60.2365 12.198 60.7125 11.722C61.1885 11.232 61.7765 10.994 62.4765 10.994C63.1905 10.994 63.7785 11.232 64.2545 11.722C64.7305 12.198 64.9685 12.786 64.9685 13.5C64.9685 14.214 64.7305 14.802 64.2545 15.292C63.7785 15.768 63.1905 16.006 62.4765 16.006Z" fill="white"/>
</svg>
