<svg width="22" height="10" viewBox="0 0 22 10" fill="none" xmlns="http://www.w3.org/2000/svg">
<path d="M21.624 1.41603C21.8538 1.07138 21.7607 0.605727 21.416 0.375962C21.0714 0.146198 20.6057 0.239328 20.376 0.583975L21.624 1.41603ZM1.62404 0.583975C1.39427 0.239328 0.928621 0.146198 0.583975 0.375962C0.239328 0.605727 0.146198 1.07138 0.375962 1.41603L1.62404 0.583975ZM14.6431 6.11413C14.43 5.75894 13.9693 5.64377 13.6141 5.85688C13.2589 6.06999 13.1438 6.53069 13.3569 6.88587L14.6431 6.11413ZM14.8569 9.38587C15.07 9.74106 15.5307 9.85623 15.8859 9.64312C16.2411 9.43001 16.3562 8.96931 16.1431 8.61413L14.8569 9.38587ZM19.5303 3.46967C19.2374 3.17678 18.7626 3.17678 18.4697 3.46967C18.1768 3.76256 18.1768 4.23744 18.4697 4.53033L19.5303 3.46967ZM20.4697 6.53033C20.7626 6.82322 21.2374 6.82322 21.5303 6.53033C21.8232 6.23744 21.8232 5.76256 21.5303 5.46967L20.4697 6.53033ZM0.46967 5.46967C0.176777 5.76256 0.176777 6.23744 0.46967 6.53033C0.762563 6.82322 1.23744 6.82322 1.53033 6.53033L0.46967 5.46967ZM3.53033 4.53033C3.82322 4.23744 3.82322 3.76256 3.53033 3.46967C3.23744 3.17678 2.76256 3.17678 2.46967 3.46967L3.53033 4.53033ZM8.64312 6.88587C8.85623 6.53069 8.74106 6.06999 8.38587 5.85688C8.03069 5.64377 7.56999 5.75894 7.35688 6.11413L8.64312 6.88587ZM5.85688 8.61413C5.64377 8.96931 5.75894 9.43001 6.11413 9.64312C6.46931 9.85623 6.93001 9.74106 7.14312 9.38587L5.85688 8.61413ZM21 1C20.376 0.583975 20.3761 0.583786 20.3762 0.583621C20.3762 0.583596 20.3763 0.583453 20.3763 0.583403C20.3764 0.583303 20.3764 0.583292 20.3764 0.583371C20.3763 0.58353 20.3759 0.584046 20.3753 0.584914C20.3742 0.586649 20.372 0.589792 20.369 0.594296C20.3628 0.603305 20.3529 0.617756 20.3392 0.637286C20.3118 0.676353 20.2696 0.735697 20.213 0.812423C20.0997 0.96595 19.929 1.18861 19.7051 1.45736C19.2563 1.99586 18.5979 2.71396 17.7619 3.43056C16.078 4.8739 13.7466 6.25 11 6.25V7.75C14.2534 7.75 16.922 6.1261 18.7381 4.56944C19.6521 3.78604 20.3687 3.00414 20.8574 2.41764C21.1022 2.12389 21.291 1.8778 21.4198 1.7032C21.4843 1.61587 21.5339 1.5463 21.568 1.49748C21.5851 1.47306 21.5984 1.45382 21.6077 1.44013C21.6124 1.43328 21.6161 1.42782 21.6188 1.42378C21.6202 1.42177 21.6213 1.42011 21.6222 1.41881C21.6226 1.41817 21.623 1.41761 21.6233 1.41715C21.6234 1.41691 21.6236 1.41663 21.6237 1.41652C21.6239 1.41626 21.624 1.41603 21 1ZM11 6.25C8.25343 6.25 5.92199 4.8739 4.23809 3.43056C3.40206 2.71396 2.74366 1.99586 2.29492 1.45736C2.07096 1.18861 1.90034 0.96595 1.78702 0.812423C1.73039 0.735697 1.68816 0.676353 1.66081 0.637286C1.64714 0.617756 1.6372 0.603305 1.63105 0.594296C1.62797 0.589792 1.62584 0.586649 1.62467 0.584914C1.62409 0.584046 1.62374 0.58353 1.62363 0.583371C1.62358 0.583292 1.62359 0.583303 1.62366 0.583403C1.62369 0.583453 1.62379 0.583596 1.6238 0.583621C1.62391 0.583786 1.62404 0.583975 1 1C0.375962 1.41603 0.376118 1.41626 0.37629 1.41652C0.376367 1.41663 0.376555 1.41691 0.37671 1.41715C0.377021 1.41761 0.377394 1.41817 0.377828 1.41881C0.378696 1.42011 0.379811 1.42177 0.381171 1.42378C0.383891 1.42782 0.387593 1.43328 0.392269 1.44013C0.401621 1.45382 0.414872 1.47306 0.431963 1.49748C0.466139 1.5463 0.515701 1.61587 0.580163 1.7032C0.709033 1.8778 0.897792 2.12389 1.14258 2.41764C1.63134 3.00414 2.34794 3.78604 3.26191 4.56944C5.07801 6.1261 7.74657 7.75 11 7.75V6.25ZM13.3569 6.88587L14.8569 9.38587L16.1431 8.61413L14.6431 6.11413L13.3569 6.88587ZM18.4697 4.53033L20.4697 6.53033L21.5303 5.46967L19.5303 3.46967L18.4697 4.53033ZM1.53033 6.53033L3.53033 4.53033L2.46967 3.46967L0.46967 5.46967L1.53033 6.53033ZM7.35688 6.11413L5.85688 8.61413L7.14312 9.38587L8.64312 6.88587L7.35688 6.11413Z" fill="#BEBEBE"/>
</svg>
