<svg width="22" height="22" viewBox="0 0 22 22" fill="none" xmlns="http://www.w3.org/2000/svg">
<path d="M2.46451 2.46393L2.99484 2.99426L2.99484 2.99426L2.46451 2.46393ZM2.46451 19.5355L1.93418 20.0658L1.93418 20.0658L2.46451 19.5355ZM19.5361 19.5355L20.0664 20.0658L19.5361 19.5355ZM10.0016 1.75C10.4158 1.74925 10.751 1.41286 10.7503 0.998649C10.7495 0.584436 10.4131 0.249255 9.99891 0.250001L10.0016 1.75ZM21.75 12.0011C21.7507 11.5869 21.4156 11.2505 21.0014 11.2497C20.5871 11.249 20.2507 11.5842 20.25 11.9984L21.75 12.0011ZM20.4913 1.55556L21.0395 1.04372V1.04372L20.4913 1.55556ZM9.35972 11.5796C9.06618 11.8719 9.06513 12.3467 9.35737 12.6403C9.64961 12.9338 10.1245 12.9349 10.418 12.6426L9.35972 11.5796ZM19.9205 1.25229L19.7898 1.9908V1.9908L19.9205 1.25229ZM15.4444 0.25C15.0302 0.250036 14.6944 0.585852 14.6944 1.00007C14.6945 1.41428 15.0303 1.75004 15.4445 1.75L15.4444 0.25ZM20.25 6.55556C20.25 6.96977 20.5858 7.30556 21 7.30556C21.4142 7.30556 21.75 6.96977 21.75 6.55556H20.25ZM20.7477 2.07972L21.4862 1.94906V1.94906L20.7477 2.07972ZM1.75 10.9997C1.75 8.62142 1.75159 6.91315 1.92638 5.61313C2.09826 4.33469 2.42516 3.56394 2.99484 2.99426L1.93418 1.9336C1.03935 2.82843 0.633997 3.96848 0.439752 5.41326C0.248407 6.83646 0.25 8.66382 0.25 10.9997H1.75ZM11.0003 20.25C8.62199 20.25 6.91372 20.2484 5.61371 20.0736C4.33526 19.9017 3.56451 19.5748 2.99484 19.0052L1.93418 20.0658C2.82901 20.9607 3.96906 21.366 5.41383 21.5602C6.83703 21.7516 8.6644 21.75 11.0003 21.75V20.25ZM0.25 10.9997C0.25 13.3356 0.248407 15.163 0.439751 16.5862C0.633996 18.0309 1.03935 19.171 1.93418 20.0658L2.99484 19.0052C2.42516 18.4355 2.09826 17.6647 1.92638 16.3863C1.75159 15.0863 1.75 13.378 1.75 10.9997H0.25ZM11.0003 21.75C13.3362 21.75 15.1635 21.7516 16.5867 21.5602C18.0315 21.366 19.1716 20.9607 20.0664 20.0658L19.0057 19.0052C18.4361 19.5748 17.6653 19.9017 16.3869 20.0736C15.0869 20.2484 13.3786 20.25 11.0003 20.25V21.75ZM9.99891 0.250001C7.9837 0.25363 6.37757 0.278767 5.10075 0.485438C3.80201 0.695657 2.76261 1.10517 1.93418 1.9336L2.99484 2.99426C3.52348 2.46562 4.22436 2.14682 5.34043 1.96617C6.47843 1.78197 7.96164 1.75367 10.0016 1.75L9.99891 0.250001ZM20.25 11.9984C20.2463 14.0384 20.218 15.5216 20.0338 16.6596C19.8532 17.7756 19.5344 18.4765 19.0057 19.0052L20.0664 20.0658C20.8948 19.2374 21.3043 18.198 21.5146 16.8992C21.7212 15.6224 21.7464 14.0163 21.75 12.0011L20.25 11.9984ZM19.9621 1.02405L9.35972 11.5796L10.418 12.6426L21.0204 2.08706L19.9621 1.02405ZM20.0513 0.513784C19.2791 0.37703 18.1104 0.313254 17.1728 0.281857C16.6959 0.265888 16.2648 0.257934 15.9528 0.253965C15.7968 0.25198 15.6703 0.250989 15.5825 0.250494C15.5386 0.250246 15.5044 0.250123 15.481 0.250061C15.4693 0.25003 15.4603 0.250015 15.4542 0.250008C15.4511 0.250004 15.4487 0.250002 15.4471 0.250001C15.4463 0.25 15.4456 0.25 15.4452 0.25C15.445 0.25 15.4448 0.25 15.4446 0.25C15.4446 0.25 15.4445 0.25 15.4445 0.25C15.4444 0.25 15.4444 0.25 15.4444 1C15.4445 1.75 15.4445 1.75 15.4445 1.75C15.4445 1.75 15.4445 1.75 15.4445 1.75C15.4446 1.75 15.4447 1.75 15.4448 1.75C15.4451 1.75 15.4456 1.75 15.4462 1.75C15.4475 1.75 15.4496 1.75 15.4523 1.75001C15.4578 1.75001 15.4661 1.75003 15.4771 1.75006C15.499 1.75011 15.5318 1.75023 15.5741 1.75047C15.6587 1.75095 15.7816 1.75191 15.9338 1.75384C16.2383 1.75772 16.6587 1.76548 17.1226 1.78102C18.0666 1.81263 19.1359 1.875 19.7898 1.9908L20.0513 0.513784ZM21 6.55556C21.75 6.55556 21.75 6.55551 21.75 6.55546C21.75 6.55543 21.75 6.55536 21.75 6.55529C21.75 6.55516 21.75 6.55498 21.75 6.55476C21.75 6.5543 21.75 6.55367 21.75 6.55285C21.75 6.55121 21.75 6.54885 21.75 6.54577C21.75 6.53962 21.75 6.53062 21.7499 6.51892C21.7499 6.49552 21.7497 6.46131 21.7495 6.41744C21.749 6.32969 21.748 6.20321 21.746 6.04715C21.742 5.73525 21.734 5.3041 21.718 4.82727C21.6866 3.88974 21.6228 2.72113 21.4862 1.94906L20.0092 2.21037C20.1249 2.86433 20.1872 3.93364 20.2189 4.87753C20.2344 5.34141 20.2422 5.76183 20.2461 6.06633C20.2481 6.21847 20.249 6.3414 20.2495 6.42601C20.2498 6.46831 20.2499 6.50102 20.2499 6.52299C20.25 6.53398 20.25 6.54228 20.25 6.54776C20.25 6.55049 20.25 6.55252 20.25 6.55383C20.25 6.55448 20.25 6.55496 20.25 6.55524C20.25 6.55539 20.25 6.55549 20.25 6.55554C20.25 6.55556 20.25 6.55557 20.25 6.55558C20.25 6.55557 20.25 6.55556 21 6.55556ZM19.7898 1.9908C19.8656 2.00423 19.9131 2.03523 19.9431 2.06739L21.0395 1.04372C20.7787 0.764388 20.434 0.581557 20.0513 0.513784L19.7898 1.9908ZM19.9431 2.06739C19.9705 2.09678 19.997 2.14171 20.0092 2.21038L21.4862 1.94906C21.4257 1.60656 21.2728 1.29364 21.0395 1.04372L19.9431 2.06739Z" fill="#282828"/>
</svg>
