<svg width="15" height="14" viewBox="0 0 15 14" fill="none" xmlns="http://www.w3.org/2000/svg">
<path d="M1.84155 6.29213C1.82848 6.0163 1.59428 5.80328 1.31844 5.81635C1.04261 5.82942 0.829598 6.06362 0.842665 6.33945L1.84155 6.29213ZM1.4467 8.52368L0.947264 8.54734L0.947273 8.54751L1.4467 8.52368ZM14.1573 6.33945C14.1704 6.06362 13.9574 5.82942 13.6816 5.81635C13.4057 5.80328 13.1715 6.0163 13.1585 6.29213L14.1573 6.33945ZM13.5533 8.52368L14.0527 8.54751L14.0527 8.54734L13.5533 8.52368ZM2.40868 12.7779L2.74522 12.4082H2.74522L2.40868 12.7779ZM1.23755 5.93472L0.795007 6.16744H0.795007L1.23755 5.93472ZM13.7625 5.93472L14.205 6.16744V6.16744L13.7625 5.93472ZM7.49996 5.81579C7.22381 5.81579 6.99996 6.03965 6.99996 6.31579C6.99996 6.59193 7.22381 6.81579 7.49996 6.81579V5.81579ZM7.5061 6.81579C7.78224 6.81579 8.0061 6.59193 8.0061 6.31579C8.0061 6.03965 7.78224 5.81579 7.5061 5.81579V6.81579ZM10.1763 2.68327L10.6571 2.54591V2.54591L10.1763 2.68327ZM4.82349 2.68327L4.34273 2.54591V2.54591L4.82349 2.68327ZM9.36638 0.80135L9.04458 1.18404V1.18404L9.36638 0.80135ZM5.63346 0.80135L5.31166 0.418665V0.418665L5.63346 0.80135ZM0.842665 6.33945L0.947264 8.54734L1.94614 8.50002L1.84155 6.29213L0.842665 6.33945ZM13.1585 6.29213L13.0539 8.50002L14.0527 8.54734L14.1573 6.33945L13.1585 6.29213ZM6.91474 14H8.08526V13H6.91474V14ZM13.0539 8.49984C12.997 9.69167 12.9557 10.5339 12.8362 11.171C12.72 11.7914 12.541 12.1477 12.2548 12.4082L12.9279 13.1477C13.4351 12.6861 13.6809 12.0928 13.8191 11.3552C13.9543 10.6344 13.9972 9.7105 14.0527 8.54751L13.0539 8.49984ZM8.08526 14C9.30966 14 10.2749 14.0009 11.0313 13.9058C11.7998 13.8092 12.4238 13.6064 12.9279 13.1477L12.2548 12.4082C11.9654 12.6715 11.574 12.8297 10.9066 12.9136C10.2271 12.9991 9.33596 13 8.08526 13V14ZM0.947273 8.54751C1.00278 9.7105 1.04575 10.6344 1.18088 11.3552C1.31913 12.0928 1.56492 12.6861 2.07215 13.1477L2.74522 12.4082C2.45905 12.1477 2.28005 11.7914 2.16376 11.171C2.04434 10.5339 2.00302 9.69167 1.94614 8.49984L0.947273 8.54751ZM6.91474 13C5.66404 13 4.77295 12.9991 4.09344 12.9136C3.42601 12.8297 3.03461 12.6715 2.74522 12.4082L2.07215 13.1477C2.57616 13.6064 3.20023 13.8092 3.96871 13.9058C4.7251 14.0009 5.69034 14 6.91474 14V13ZM7.5 8.55263C5.10767 8.55263 2.71783 7.67538 1.68009 5.702L0.795007 6.16744C2.08261 8.61595 4.93755 9.55263 7.5 9.55263V8.55263ZM13.3199 5.702C12.2822 7.67538 9.89233 8.55263 7.5 8.55263V9.55263C10.0625 9.55263 12.9174 8.61595 14.205 6.16744L13.3199 5.702ZM2.46969 3.39474H12.5303V2.39474H2.46969V3.39474ZM1.68009 5.702C1.47587 5.31367 1.43625 4.69706 1.60788 4.17516C1.77761 3.65903 2.08633 3.39474 2.46969 3.39474V2.39474C1.48615 2.39474 0.901291 3.12274 0.65793 3.86276C0.416466 4.597 0.44422 5.50039 0.795007 6.16744L1.68009 5.702ZM12.5303 3.39474C12.9137 3.39474 13.2224 3.65903 13.3921 4.17516C13.5638 4.69706 13.5241 5.31367 13.3199 5.702L14.205 6.16744C14.5558 5.50039 14.5835 4.597 14.3421 3.86276C14.0987 3.12274 13.5139 2.39474 12.5303 2.39474V3.39474ZM7.49996 6.81579H7.5061V5.81579H7.49996V6.81579ZM7.41989 1H7.57994V0H7.41989V1ZM9.69558 2.82063L9.756 3.0321L10.7175 2.75738L10.6571 2.54591L9.69558 2.82063ZM5.24384 3.0321L5.30425 2.82063L4.34273 2.54591L4.28231 2.75738L5.24384 3.0321ZM7.57994 1C8.06935 1 8.38751 1.00102 8.62977 1.03329C8.85387 1.06314 8.96147 1.11415 9.04458 1.18404L9.68817 0.418665C9.41291 0.1872 9.10332 0.0875344 8.7618 0.0420459C8.43845 -0.00102317 8.04258 0 7.57994 0V1ZM10.6571 2.54591C10.5094 2.02907 10.3889 1.60512 10.2573 1.27498C10.1227 0.937478 9.95686 0.644604 9.68817 0.418665L9.04458 1.18404C9.13426 1.25945 9.22287 1.38068 9.32841 1.64537C9.43689 1.91742 9.54219 2.28376 9.69558 2.82063L10.6571 2.54591ZM7.41989 0C6.95726 0 6.56138 -0.00102317 6.23803 0.0420459C5.89652 0.0875344 5.58693 0.1872 5.31166 0.418665L5.95525 1.18404C6.03836 1.11415 6.14596 1.06314 6.37006 1.03329C6.61233 1.00102 6.93048 1 7.41989 1V0ZM5.30425 2.82063C5.45765 2.28376 5.56294 1.91742 5.67142 1.64537C5.77697 1.38068 5.86557 1.25945 5.95525 1.18404L5.31166 0.418665C5.04297 0.644604 4.87712 0.937478 4.74254 1.27498C4.6109 1.60512 4.4904 2.02907 4.34273 2.54591L5.30425 2.82063Z" fill="black"/>
</svg>
