<svg width="25" height="25" viewBox="0 0 25 25" fill="none" xmlns="http://www.w3.org/2000/svg">
<mask id="mask0_273_16849" style="mask-type:alpha" maskUnits="userSpaceOnUse" x="0" y="0" width="25" height="25">
<path d="M25 12.5C25 19.4036 19.4036 25 12.5 25C5.59644 25 0 19.4036 0 12.5C0 5.59644 5.59644 0 12.5 0C19.4036 0 25 5.59644 25 12.5Z" fill="#D35D5D"/>
</mask>
<g mask="url(#mask0_273_16849)">
<path d="M-4.72266 0H32.7773V25H-4.72266V0Z" fill="#E30A17"/>
<path d="M14.7706 12.5L19.4446 10.9815L16.5557 14.9572V10.0428L19.4446 14.0184L14.7706 12.5ZM15.0893 15.2631C14.4906 16.2091 13.6009 16.9351 12.554 17.3318C11.5072 17.7286 10.3598 17.7746 9.28448 17.463C8.2092 17.1513 7.26422 16.4989 6.59174 15.6038C5.91926 14.7088 5.55566 13.6195 5.55566 12.5C5.55566 11.3804 5.91926 10.2912 6.59174 9.39614C7.26422 8.50109 8.2092 7.84865 9.28448 7.537C10.3598 7.22536 11.5072 7.27137 12.554 7.66811C13.6009 8.06486 14.4906 8.79087 15.0893 9.7369C14.5302 9.11482 13.7957 8.67695 12.9825 8.48112C12.1694 8.28529 11.316 8.34071 10.5351 8.64006C9.75412 8.93941 9.08234 9.46861 8.60845 10.1578C8.13456 10.8469 7.88086 11.6636 7.88086 12.5C7.88086 13.3363 8.13456 14.153 8.60845 14.8422C9.08234 15.5313 9.75412 16.0605 10.5351 16.3599C11.316 16.6592 12.1694 16.7147 12.9825 16.5188C13.7957 16.323 14.5302 15.8851 15.0893 15.2631Z" fill="white"/>
</g>
</svg>
