<svg width="13" height="12" viewBox="0 0 13 12" fill="none" xmlns="http://www.w3.org/2000/svg">
<path d="M1 2.40625C0.741117 2.40625 0.53125 2.61612 0.53125 2.875C0.53125 3.13388 0.741117 3.34375 1 3.34375V2.40625ZM1 8.65625C0.741117 8.65625 0.53125 8.86612 0.53125 9.125C0.53125 9.38388 0.741117 9.59375 1 9.59375V8.65625ZM4.75 9.59375C5.00888 9.59375 5.21875 9.38388 5.21875 9.125C5.21875 8.86612 5.00888 8.65625 4.75 8.65625V9.59375ZM12.25 9.59375C12.5089 9.59375 12.7188 9.38388 12.7188 9.125C12.7188 8.86612 12.5089 8.65625 12.25 8.65625V9.59375ZM8.5 2.40625C8.24112 2.40625 8.03125 2.61612 8.03125 2.875C8.03125 3.13388 8.24112 3.34375 8.5 3.34375V2.40625ZM12.25 3.34375C12.5089 3.34375 12.7188 3.13388 12.7188 2.875C12.7188 2.61612 12.5089 2.40625 12.25 2.40625V3.34375ZM1 3.34375H2.875V2.40625H1V3.34375ZM1 9.59375H4.75V8.65625H1V9.59375ZM10.375 9.59375H12.25V8.65625H10.375V9.59375ZM8.5 3.34375L12.25 3.34375V2.40625L8.5 2.40625V3.34375ZM4.75 4.28125C4.45237 4.28125 4.25263 4.281 4.09796 4.27044C3.94751 4.26018 3.87425 4.24175 3.82603 4.22178L3.46726 5.08792C3.64876 5.16309 3.83596 5.19225 4.03415 5.20577C4.22812 5.219 4.4652 5.21875 4.75 5.21875V4.28125ZM2.40625 2.875C2.40625 3.1598 2.406 3.39688 2.41923 3.59085C2.43275 3.78904 2.46191 3.97624 2.53708 4.15774L3.40322 3.79897C3.38325 3.75075 3.36482 3.67749 3.35456 3.52704C3.344 3.37237 3.34375 3.17263 3.34375 2.875H2.40625ZM3.82603 4.22178C3.6346 4.14249 3.48251 3.9904 3.40322 3.79897L2.53708 4.15774C2.71152 4.57888 3.04612 4.91348 3.46726 5.08792L3.82603 4.22178ZM6.15625 2.875C6.15625 3.17263 6.156 3.37237 6.14544 3.52704C6.13518 3.67749 6.11675 3.75075 6.09678 3.79897L6.96292 4.15774C7.03809 3.97624 7.06725 3.78904 7.08077 3.59085C7.094 3.39688 7.09375 3.1598 7.09375 2.875H6.15625ZM4.75 5.21875C5.0348 5.21875 5.27188 5.219 5.46585 5.20577C5.66404 5.19225 5.85124 5.16309 6.03274 5.08792L5.67397 4.22178C5.62575 4.24175 5.55249 4.26018 5.40204 4.27044C5.24737 4.281 5.04763 4.28125 4.75 4.28125V5.21875ZM6.09678 3.79897C6.01749 3.9904 5.8654 4.14249 5.67397 4.22178L6.03274 5.08792C6.45388 4.91348 6.78848 4.57888 6.96292 4.15774L6.09678 3.79897ZM4.75 1.46875C5.04763 1.46875 5.24737 1.469 5.40204 1.47956C5.55249 1.48982 5.62575 1.50825 5.67397 1.52822L6.03274 0.662082C5.85124 0.586905 5.66404 0.557753 5.46585 0.544231C5.27188 0.530996 5.0348 0.53125 4.75 0.53125V1.46875ZM7.09375 2.875C7.09375 2.5902 7.094 2.35312 7.08077 2.15915C7.06725 1.96096 7.03809 1.77376 6.96292 1.59226L6.09678 1.95103C6.11675 1.99925 6.13518 2.07251 6.14544 2.22296C6.156 2.37763 6.15625 2.57737 6.15625 2.875H7.09375ZM5.67397 1.52822C5.8654 1.60751 6.01749 1.7596 6.09678 1.95103L6.96292 1.59226C6.78848 1.17112 6.45388 0.836525 6.03274 0.662082L5.67397 1.52822ZM4.75 0.53125C4.4652 0.53125 4.22812 0.530996 4.03415 0.544231C3.83596 0.557753 3.64876 0.586905 3.46726 0.662082L3.82603 1.52822C3.87425 1.50825 3.94751 1.48982 4.09796 1.47956C4.25263 1.469 4.45237 1.46875 4.75 1.46875V0.53125ZM3.34375 2.875C3.34375 2.57737 3.344 2.37763 3.35456 2.22296C3.36482 2.07251 3.38325 1.99925 3.40322 1.95103L2.53708 1.59226C2.46191 1.77376 2.43275 1.96096 2.41923 2.15915C2.406 2.35312 2.40625 2.5902 2.40625 2.875H3.34375ZM3.46726 0.662082C3.04612 0.836525 2.71152 1.17112 2.53708 1.59226L3.40322 1.95103C3.48251 1.7596 3.6346 1.60751 3.82603 1.52822L3.46726 0.662082ZM8.5 10.5312C8.20237 10.5312 8.00263 10.531 7.84796 10.5204C7.69751 10.5102 7.62425 10.4918 7.57603 10.4718L7.21726 11.3379C7.39876 11.4131 7.58596 11.4422 7.78415 11.4558C7.97812 11.469 8.2152 11.4688 8.5 11.4688V10.5312ZM6.15625 9.125C6.15625 9.4098 6.156 9.64688 6.16923 9.84085C6.18275 10.039 6.21191 10.2262 6.28708 10.4077L7.15322 10.049C7.13325 10.0008 7.11482 9.92749 7.10456 9.77704C7.094 9.62237 7.09375 9.42263 7.09375 9.125H6.15625ZM7.57603 10.4718C7.3846 10.3925 7.23251 10.2404 7.15322 10.049L6.28708 10.4077C6.46152 10.8289 6.79612 11.1635 7.21726 11.3379L7.57603 10.4718ZM9.90625 9.125C9.90625 9.42263 9.906 9.62237 9.89544 9.77704C9.88518 9.92749 9.86675 10.0008 9.84678 10.049L10.7129 10.4077C10.7881 10.2262 10.8172 10.039 10.8308 9.84085C10.844 9.64688 10.8438 9.4098 10.8438 9.125H9.90625ZM8.5 11.4688C8.7848 11.4688 9.02188 11.469 9.21585 11.4558C9.41404 11.4422 9.60124 11.4131 9.78274 11.3379L9.42397 10.4718C9.37575 10.4918 9.30249 10.5102 9.15204 10.5204C8.99737 10.531 8.79763 10.5312 8.5 10.5312V11.4688ZM9.84678 10.049C9.76749 10.2404 9.6154 10.3925 9.42397 10.4718L9.78274 11.3379C10.2039 11.1635 10.5385 10.8289 10.7129 10.4077L9.84678 10.049ZM8.5 7.71875C8.79763 7.71875 8.99737 7.719 9.15204 7.72956C9.30249 7.73982 9.37575 7.75825 9.42397 7.77822L9.78274 6.91208C9.60124 6.83691 9.41404 6.80775 9.21585 6.79423C9.02188 6.781 8.7848 6.78125 8.5 6.78125V7.71875ZM10.8438 9.125C10.8438 8.8402 10.844 8.60312 10.8308 8.40915C10.8172 8.21096 10.7881 8.02376 10.7129 7.84226L9.84678 8.20103C9.86675 8.24925 9.88518 8.32251 9.89544 8.47296C9.906 8.62763 9.90625 8.82737 9.90625 9.125H10.8438ZM9.42397 7.77822C9.6154 7.85751 9.76749 8.0096 9.84678 8.20103L10.7129 7.84226C10.5385 7.42112 10.2039 7.08652 9.78274 6.91208L9.42397 7.77822ZM8.5 6.78125C8.2152 6.78125 7.97812 6.781 7.78415 6.79423C7.58596 6.80775 7.39876 6.83691 7.21726 6.91208L7.57603 7.77822C7.62425 7.75825 7.69751 7.73982 7.84796 7.72956C8.00263 7.719 8.20237 7.71875 8.5 7.71875V6.78125ZM7.09375 9.125C7.09375 8.82737 7.094 8.62763 7.10456 8.47296C7.11482 8.32251 7.13325 8.24925 7.15322 8.20103L6.28708 7.84226C6.21191 8.02376 6.18275 8.21096 6.16923 8.40915C6.156 8.60312 6.15625 8.8402 6.15625 9.125H7.09375ZM7.21726 6.91208C6.79612 7.08652 6.46152 7.42112 6.28708 7.84226L7.15322 8.20103C7.23251 8.0096 7.3846 7.85751 7.57603 7.77822L7.21726 6.91208Z" fill="#5282FF"/>
</svg>
