<svg width="25" height="25" viewBox="0 0 25 25" fill="none" xmlns="http://www.w3.org/2000/svg">
<mask id="mask0_273_16825" style="mask-type:alpha" maskUnits="userSpaceOnUse" x="0" y="0" width="25" height="25">
<circle cx="12.5" cy="12.5" r="12.5" fill="#D9D9D9"/>
</mask>
<g mask="url(#mask0_273_16825)">
<path d="M37.5 1.25H-13.75V26.875H37.5V1.25Z" fill="#509E2F"/>
<path d="M37.5 0H-13.75V17.0833H37.5V0Z" fill="#EF3340"/>
<path d="M37.5 -1.25H-13.75V7.29167H37.5V-1.25Z" fill="#00B5E2"/>
<path d="M11.6211 16.4375C13.7439 16.4375 15.4648 14.7166 15.4648 12.5938C15.4648 10.4709 13.7439 8.75 11.6211 8.75C9.49825 8.75 7.77734 10.4709 7.77734 12.5938C7.77734 14.7166 9.49825 16.4375 11.6211 16.4375Z" fill="white"/>
<path d="M12.4756 15.7971C14.2446 15.7971 15.6787 14.363 15.6787 12.594C15.6787 10.825 14.2446 9.39087 12.4756 9.39087C10.7065 9.39087 9.27246 10.825 9.27246 12.594C9.27246 14.363 10.7065 15.7971 12.4756 15.7971Z" fill="#EF3340"/>
<path d="M15.8923 10.4581L16.3008 11.6071L17.4022 11.0836L16.8787 12.185L18.0277 12.5935L16.8787 13.0021L17.4022 14.1035L16.3008 13.58L15.8923 14.729L15.4837 13.58L14.3823 14.1035L14.9058 13.0021L13.7568 12.5935L14.9058 12.185L14.3823 11.0836L15.4837 11.6071L15.8923 10.4581Z" fill="white"/>
</g>
</svg>
