<svg width="15" height="14" viewBox="0 0 15 14" fill="none" xmlns="http://www.w3.org/2000/svg">
<path d="M5.59557 6.81591C5.23501 6.61201 4.77744 6.73901 4.57354 7.09957C4.36965 7.46013 4.49665 7.9177 4.85721 8.12159L5.59557 6.81591ZM6.73921 8.875L6.09701 9.26241C6.24044 9.50017 6.50349 9.63923 6.78074 9.62385C7.05798 9.60847 7.30404 9.44118 7.4203 9.18902L6.73921 8.875ZM10.6266 5.15931C10.9908 4.96187 11.1259 4.50662 10.9284 4.1425C10.731 3.77837 10.2757 3.64324 9.91162 3.84069L10.6266 5.15931ZM14.8012 7C14.8012 3.128 11.6372 0 7.74775 0V1.5C10.8209 1.5 13.3012 3.96844 13.3012 7H14.8012ZM7.74775 0C3.85829 0 0.694336 3.128 0.694336 7H2.19434C2.19434 3.96844 4.67466 1.5 7.74775 1.5V0ZM0.694336 7C0.694336 10.872 3.85829 14 7.74775 14V12.5C4.67466 12.5 2.19434 10.0316 2.19434 7H0.694336ZM7.74775 14C11.6372 14 14.8012 10.872 14.8012 7H13.3012C13.3012 10.0316 10.8209 12.5 7.74775 12.5V14ZM5.22639 7.46875C4.85721 8.12159 4.85708 8.12152 4.85695 8.12145C4.85692 8.12143 4.8568 8.12136 4.85672 8.12132C4.85658 8.12124 4.85645 8.12116 4.85633 8.1211C4.8561 8.12097 4.85592 8.12087 4.85581 8.1208C4.85558 8.12067 4.85558 8.12067 4.85582 8.12081C4.85628 8.12107 4.85766 8.12187 4.8599 8.12317C4.86439 8.12579 4.87232 8.13046 4.88335 8.13711C4.90543 8.15043 4.9397 8.17156 4.98333 8.1999C5.07101 8.25685 5.19417 8.34141 5.33098 8.44865C5.61444 8.67087 5.91244 8.95644 6.09701 9.26241L7.3814 8.48759C7.06171 7.95764 6.60329 7.54009 6.25641 7.26815C6.07805 7.12833 5.91755 7.01806 5.80038 6.94195C5.74158 6.90376 5.69312 6.8738 5.65807 6.85267C5.64053 6.84209 5.6263 6.83369 5.61577 6.82754C5.6105 6.82447 5.60616 6.82196 5.60277 6.82002C5.60108 6.81905 5.59963 6.81822 5.59843 6.81753C5.59783 6.81719 5.59729 6.81688 5.59681 6.81661C5.59657 6.81647 5.59635 6.81635 5.59614 6.81623C5.59604 6.81617 5.59589 6.81609 5.59584 6.81606C5.5957 6.81598 5.59557 6.81591 5.22639 7.46875ZM6.73921 8.875C7.4203 9.18902 7.42025 9.18913 7.4202 9.18923C7.4202 9.18925 7.42015 9.18934 7.42014 9.18938C7.42011 9.18945 7.4201 9.18947 7.42011 9.18944C7.42014 9.18938 7.42025 9.18913 7.42046 9.18868C7.42088 9.18779 7.42165 9.18613 7.42278 9.18371C7.42505 9.17888 7.42874 9.17104 7.43382 9.16037C7.44399 9.13901 7.45973 9.10632 7.48079 9.06363C7.52293 8.97819 7.58623 8.85295 7.66873 8.69842C7.8341 8.38864 8.07456 7.96498 8.3741 7.5102C8.99153 6.57278 9.78952 5.61323 10.6266 5.15931L9.91162 3.84069C8.73163 4.48052 7.76467 5.70847 7.12141 6.68512C6.79061 7.18736 6.52679 7.65238 6.34548 7.99201C6.25463 8.16219 6.18399 8.30184 6.13552 8.40012C6.11127 8.44928 6.09253 8.48816 6.07956 8.5154C6.07307 8.52902 6.06802 8.53975 6.06444 8.5474C6.06264 8.55122 6.06122 8.55428 6.06016 8.55655C6.05963 8.55769 6.0592 8.55863 6.05886 8.55937C6.05869 8.55973 6.05854 8.56005 6.05841 8.56032C6.05835 8.56046 6.05828 8.56062 6.05825 8.56069C6.05818 8.56084 6.05811 8.56098 6.73921 8.875Z" fill="#21BF4E"/>
</svg>
