<svg width="22" height="19" viewBox="0 0 22 19" fill="none" xmlns="http://www.w3.org/2000/svg">
<path d="M1.22021 9.97589C1.22021 8.89211 2.09879 8.01354 3.18257 8.01354C4.80824 8.01354 6.1261 9.3314 6.1261 10.9571V14.8818C6.1261 16.5074 4.80824 17.8253 3.18257 17.8253C2.09879 17.8253 1.22021 16.9467 1.22021 15.863V9.97589Z" stroke="#2A353D" stroke-width="1.47177" stroke-linecap="round" stroke-linejoin="round"/>
<path d="M14.4453 5.3705L14.184 6.21439C13.9699 6.9059 13.8628 7.25165 13.9451 7.52471C14.0117 7.74563 14.158 7.93604 14.3572 8.06133C14.6035 8.2162 14.976 8.2162 15.7212 8.2162H16.1176C18.6392 8.2162 19.9001 8.2162 20.4956 8.96263C20.5637 9.04794 20.6242 9.13865 20.6766 9.23379C21.1347 10.0663 20.6138 11.1878 19.5721 13.4307C18.6162 15.489 18.1382 16.5182 17.2507 17.1239C17.1648 17.1826 17.0765 17.2379 16.9861 17.2897C16.0517 17.8253 14.8941 17.8253 12.5787 17.8253H12.0766C9.27148 17.8253 7.86895 17.8253 6.99753 16.981C6.1261 16.1366 6.1261 14.7777 6.1261 12.0598V11.1046C6.1261 9.67628 6.1261 8.96212 6.37958 8.30848C6.63306 7.65483 7.11842 7.11737 8.08914 6.04246L12.1036 1.59719C12.2042 1.4857 12.2546 1.42995 12.299 1.39132C12.7133 1.03077 13.3527 1.07136 13.7149 1.4812C13.7537 1.5251 13.7961 1.58674 13.881 1.71C14.0136 1.90281 14.08 1.99922 14.1378 2.09474C14.6553 2.94981 14.8119 3.96556 14.5748 4.92984C14.5483 5.03755 14.514 5.14859 14.4453 5.3705Z" stroke="#2A353D" stroke-width="1.47177" stroke-linecap="round" stroke-linejoin="round"/>
</svg>
