<svg width="249" height="242" viewBox="0 0 249 242" fill="none" xmlns="http://www.w3.org/2000/svg">
<path d="M132.5 164.833C136.704 167.107 139.943 168.899 143.733 171.035C144.146 167.452 144.629 164.489 142.561 161.594C138.702 156.288 134.912 150.982 131.26 145.538C130.571 144.505 129.951 143.057 130.02 141.817C130.433 132.17 130.984 122.591 131.467 112.944C131.467 112.392 131.742 111.91 131.949 110.808C144.353 117.354 156.412 123.694 169.161 130.378C169.161 126.933 169.229 124.107 169.092 121.351C169.092 120.731 168.334 120.042 167.782 119.559C164.475 116.941 160.96 114.46 157.79 111.703C156.757 110.808 156.205 109.154 155.654 107.775C155.034 106.397 155.034 104.33 154.069 103.779C153.242 103.296 151.451 104.537 149.659 105.157C146.627 103.365 143.526 101.091 144.353 96.1297C144.491 95.3028 143.25 94.2002 142.63 93.2355C141.321 94.0624 140.012 94.8893 138.289 96.0608C134.499 93.4422 130.433 90.6858 130.364 83.8637C130.295 76.2835 128.435 68.6345 127.125 61.0544C126.781 59.056 125.609 57.1954 124.782 55.197C124.3 55.197 123.887 55.197 123.404 55.197C122.646 57.6089 121.544 59.9518 121.13 62.3637C120.028 69.9438 118.994 77.5928 118.374 85.2419C118.098 88.6185 117.202 91.0992 114.308 93.0287C112.379 94.2691 110.794 95.923 108.795 97.5079C108.589 96.8188 108.52 96.2675 108.244 96.0608C107.417 95.3027 106.521 94.6826 105.625 93.9246C105.005 94.8204 103.696 95.7851 103.765 96.612C104.109 100.609 103.076 103.641 99.0789 105.226C94.8754 103.021 94.2552 103.434 93.7039 108.327C93.5661 109.429 92.8081 110.67 91.9812 111.428C88.6046 114.391 85.0902 117.147 81.6446 120.042C81.0245 120.593 80.3354 121.42 80.3354 122.178C80.1975 124.865 80.2664 127.622 80.2664 131.136C92.6703 124.245 104.592 117.63 116.858 110.739C116.996 112.186 117.133 113.15 117.202 114.115C117.754 122.936 118.374 131.756 118.718 140.577C118.787 142.437 118.305 144.642 117.271 146.296C114.377 151.12 111.276 155.875 107.899 160.354C105.419 163.593 105.212 167.038 105.901 171.517C109.415 169.45 112.585 167.658 116.582 165.315C115.824 168.348 115.342 170.622 114.722 172.827C109.347 191.777 102.731 210.245 90.7408 226.232C88.7424 228.851 86.4684 231.331 84.1943 233.743C79.1639 239.187 72.7552 241.737 65.4508 241.737C48.2232 241.806 30.9957 241.875 13.7681 241.737C3.22488 241.668 -2.0812 232.296 2.74251 222.855C29.962 169.726 57.1815 116.665 84.4011 63.5352C93.9107 45.0672 103.42 26.5993 112.861 8.06249C115.342 3.16987 118.925 0 124.645 0C130.433 0 134.016 3.23878 136.566 8.33813C149.797 34.3862 163.303 60.3653 176.672 86.4133C199.963 131.756 223.186 177.099 246.409 222.442C251.646 232.71 246.202 241.668 234.625 241.737C219.603 241.806 204.511 241.186 189.489 241.944C175.845 242.633 166.266 236.982 158.548 226.37C147.316 211.003 140.632 193.638 135.395 175.583C134.43 172.344 133.603 169.037 132.5 164.833Z" fill="url(#paint0_linear_273_1210)"/>
<defs>
<linearGradient id="paint0_linear_273_1210" x1="124.677" y1="0" x2="124.677" y2="242" gradientUnits="userSpaceOnUse">
<stop stop-color="#749AFF"/>
<stop offset="1" stop-color="#5282FF"/>
</linearGradient>
</defs>
</svg>
