<svg width="87" height="54" viewBox="0 0 87 54" fill="none" xmlns="http://www.w3.org/2000/svg">
<path d="M54.7768 5.87484H31.4588V47.7779H54.7768V5.87484Z" fill="#FF5F00"/>
<path d="M32.9391 26.8278C32.9354 22.7923 33.8499 18.8088 35.6134 15.1789C37.3768 11.549 39.943 8.36784 43.1175 5.87631C39.1863 2.78622 34.4649 0.86454 29.4931 0.330911C24.5213 -0.202718 19.4996 0.673239 15.0021 2.85866C10.5046 5.04408 6.71266 8.45077 4.05976 12.6894C1.40686 16.928 0 21.8275 0 26.8278C0 31.8282 1.40686 36.7277 4.05976 40.9663C6.71266 45.2049 10.5046 48.6116 15.0021 50.7971C19.4996 52.9825 24.5213 53.8584 29.4931 53.3248C34.4649 52.7912 39.1863 50.8695 43.1175 47.7794C39.943 45.2879 37.3768 42.1067 35.6134 38.4768C33.85 34.8469 32.9355 30.8634 32.9391 26.8278Z" fill="#EB001B"/>
<path d="M86.234 26.8278C86.2342 31.8281 84.8276 36.7276 82.1748 40.9662C79.522 45.2048 75.7302 48.6116 71.2328 50.797C66.7354 52.9824 61.7138 53.8584 56.7421 53.3248C51.7703 52.7912 47.0487 50.8695 43.1175 47.7794C46.2894 45.2854 48.8538 42.1037 50.6169 38.4744C52.3801 34.845 53.2962 30.8628 53.2962 26.8278C53.2962 22.7929 52.3801 18.8107 50.6169 15.1813C48.8538 11.552 46.2894 8.37036 43.1175 5.87631C47.0487 2.78621 51.7703 0.864527 56.7421 0.330905C61.7138 -0.202718 66.7354 0.673255 71.2328 2.8587C75.7302 5.04414 79.522 8.45085 82.1748 12.6895C84.8276 16.9281 86.2342 21.8275 86.234 26.8278Z" fill="#F79E1B"/>
<path d="M83.6917 43.3403V42.4824H84.0376V42.3077H83.1566V42.4824H83.5027V43.3403H83.6917ZM85.4021 43.3403V42.306H85.132L84.8214 43.0174L84.5107 42.306H84.2405V43.3403H84.4312V42.5601L84.7225 43.2328H84.9202L85.2115 42.5584V43.3403H85.4021Z" fill="#F79E1B"/>
</svg>
