<svg width="87" height="24" viewBox="0 0 87 24" fill="none" xmlns="http://www.w3.org/2000/svg">
<path fill-rule="evenodd" clip-rule="evenodd" d="M8.74045 0.00450228C9.51085 -0.000106568 11.8005 -0.206321 12.7703 3.06685C13.4236 5.2717 14.4642 8.88334 15.8922 13.9018H16.4738C18.0052 8.61099 19.0572 4.99935 19.6298 3.06685C20.6097 -0.240416 23.0596 0.00456709 24.0395 0.00456709L31.5999 0.00457652V23.5229H23.8941V9.66315H23.3774L19.0818 23.5229H13.2842L8.98862 9.65288H8.47189V23.5229H0.766113V0.00457652L8.74045 0.00450228ZM42.6653 0.00457652V13.8746H43.28L48.5052 2.46938C49.5195 0.199707 51.6813 0.00457652 51.6813 0.00457652H59.1382V23.5229H51.2714V9.65288H50.6567L45.534 21.0581C44.5197 23.3175 42.2554 23.5229 42.2554 23.5229H34.7985V0.00457652H42.6653ZM86.329 11.1807C85.2317 14.2902 81.7856 16.5172 77.9704 16.5172H69.7206V23.5229H62.2399V11.1807H86.329Z" fill="#0F754E"/>
<path fill-rule="evenodd" clip-rule="evenodd" d="M78.3312 0.00455142H61.8475C62.2398 5.24054 66.7489 9.72288 71.4168 9.72288H86.8488C87.7393 5.37116 84.6736 0.00455142 78.3312 0.00455142Z" fill="url(#paint0_linear_11_231)"/>
<defs>
<linearGradient id="paint0_linear_11_231" x1="87.0001" y1="14.7971" x2="0.766113" y2="14.7971" gradientUnits="userSpaceOnUse">
<stop stop-color="#1F5CD7"/>
<stop offset="1" stop-color="#02AEFF"/>
</linearGradient>
</defs>
</svg>
