<svg width="17" height="18" viewBox="0 0 17 18" fill="none" xmlns="http://www.w3.org/2000/svg">
<path d="M3.21982 12.1334C1.94652 12.8916 -1.39197 14.4397 0.641395 16.3769C1.63468 17.3232 2.74094 18 4.13178 18H12.0682C13.4591 18 14.5653 17.3232 15.5586 16.3769C17.592 14.4397 14.2535 12.8916 12.9802 12.1334C9.99433 10.3555 6.20567 10.3555 3.21982 12.1334Z" fill="#5282FF"/>
<path d="M12.15 4.05C12.15 6.28675 10.3368 8.1 8.1 8.1C5.86325 8.1 4.05 6.28675 4.05 4.05C4.05 1.81325 5.86325 0 8.1 0C10.3368 0 12.15 1.81325 12.15 4.05Z" fill="#5282FF"/>
</svg>
