<svg width="31" height="26" viewBox="0 0 31 26" fill="none" xmlns="http://www.w3.org/2000/svg">
<path d="M6.48423 0.732057C9.01466 0.732057 10.9287 1.77018 12.2264 3.84643C13.3294 5.59826 13.8809 7.73939 13.8809 10.2698C13.8809 13.5139 13.0374 16.4337 11.3504 19.029C9.72837 21.6243 7.23038 23.7005 3.85649 25.2577L2.98057 23.5059C4.99193 22.6624 6.71132 21.3323 8.13874 19.5156C9.63104 17.6989 10.3772 15.8497 10.3772 13.9681C10.3772 13.1895 10.2799 12.5083 10.0852 11.9243C9.0471 12.7678 7.84677 13.1895 6.48423 13.1895C4.7324 13.1895 3.2401 12.638 2.00733 11.535C0.839441 10.3671 0.255497 8.84239 0.255497 6.96079C0.255497 5.20896 0.839441 3.7491 2.00733 2.58122C3.2401 1.34844 4.7324 0.732057 6.48423 0.732057ZM23.0293 0.732057C25.5597 0.732057 27.4738 1.77018 28.7714 3.84643C29.8744 5.59826 30.4259 7.73939 30.4259 10.2698C30.4259 13.5139 29.5825 16.4337 27.8955 19.029C26.2735 21.6243 23.7755 23.7005 20.4016 25.2577L19.5257 23.5059C21.537 22.6624 23.2564 21.3323 24.6838 19.5156C26.1761 17.6989 26.9223 15.8497 26.9223 13.9681C26.9223 13.1895 26.825 12.5083 26.6303 11.9243C25.5922 12.7678 24.3919 13.1895 23.0293 13.1895C21.2775 13.1895 19.7852 12.638 18.5524 11.535C17.3845 10.3671 16.8006 8.84239 16.8006 6.96079C16.8006 5.20896 17.3845 3.7491 18.5524 2.58122C19.7852 1.34844 21.2775 0.732057 23.0293 0.732057Z" fill="#5282FF"/>
</svg>
