<svg width="29" height="29" viewBox="0 0 29 29" fill="none" xmlns="http://www.w3.org/2000/svg">
<circle cx="14.5" cy="14.5" r="14.5" fill="#F7F7F7"/>
<g clip-path="url(#clip0_192_716)">
<path d="M20.7062 10.2069C20.4415 9.46208 19.9783 8.86264 19.3587 8.38779C18.5308 7.75262 17.5778 7.51706 16.5587 7.51502C14.8399 7.51128 13.1217 7.51366 11.4032 7.514C11.1113 7.514 11.0053 7.62395 11.0053 7.9286C11.005 9.90357 11.005 11.8782 11.005 13.8532V14.0448H10.8366C10.2029 14.0448 9.56892 14.0445 8.93525 14.0452C8.61792 14.0452 8.51192 14.1541 8.51158 14.4781C8.51125 14.8996 8.51091 15.3206 8.51158 15.742C8.51225 16.0409 8.62194 16.1532 8.91412 16.1536C9.55718 16.1542 10.1999 16.1536 10.8426 16.1536H10.9959V17.3201H10.8524C10.2053 17.3201 9.55785 17.3194 8.91077 17.3204C8.61591 17.3204 8.51192 17.428 8.51125 17.731C8.51057 18.0887 8.51057 18.4468 8.51125 18.8046C8.51192 19.1062 8.61691 19.2151 8.91278 19.2154C9.55114 19.2171 10.1892 19.2161 10.8275 19.2161H11.0046V19.3727C11.0046 19.9207 11.007 20.4688 11.0036 21.0168C11.0023 21.205 11.0546 21.3531 11.2378 21.4293H13.0056C13.1921 21.363 13.2589 21.2265 13.2569 21.0307C13.2512 20.4827 13.2549 19.9347 13.2549 19.3866V19.2253C13.3219 19.2219 13.3776 19.2164 13.4336 19.2164C14.9646 19.2161 16.4956 19.2161 18.027 19.2154C18.0981 19.2154 18.1699 19.212 18.24 19.2011C18.3685 19.1814 18.453 19.1027 18.4698 18.9731C18.4865 18.8437 18.4872 18.7116 18.4885 18.5809C18.4912 18.3089 18.4896 18.0373 18.4892 17.7657C18.4892 17.4151 18.397 17.3201 18.0565 17.3201H13.2663V16.1536H13.43C14.4165 16.1536 15.4031 16.1539 16.3896 16.1536C17.0079 16.1532 17.6207 16.1045 18.2078 15.8898C19.5764 15.3884 20.4828 14.44 20.8404 12.9998C21.0735 12.062 21.0316 11.1225 20.7062 10.2069ZM16.8019 14.0125C16.6479 14.0349 16.4909 14.0431 16.3353 14.0435C15.3534 14.0462 14.3716 14.0448 13.39 14.0445C13.3505 14.0445 13.3112 14.0411 13.2636 14.0387V9.63092C13.2944 9.62615 13.3199 9.61934 13.3454 9.61934C14.4343 9.62275 15.5238 9.60573 16.6117 9.63772C17.3765 9.66019 18.0035 10.003 18.3889 10.6936C19.0182 11.8203 18.6757 13.7429 16.8019 14.0125Z" fill="#000D30"/>
<path d="M16.803 14.0126C16.649 14.0351 16.492 14.0432 16.3364 14.0436C15.3545 14.0463 14.3726 14.0449 13.3911 14.0446C13.3515 14.0446 13.3123 14.0412 13.2646 14.0388V9.63103C13.2955 9.62627 13.321 9.61946 13.3465 9.61946C14.4354 9.62286 15.5249 9.60584 16.6128 9.63784C17.3776 9.66031 18.0046 10.0031 18.39 10.6937C19.0193 11.8205 18.6768 13.743 16.803 14.0126Z" fill="#F7F7F7"/>
</g>
<defs>
<clipPath id="clip0_192_716">
<rect width="12.4767" height="13.9164" fill="white" transform="translate(8.51172 7.51306)"/>
</clipPath>
</defs>
</svg>
