<svg width="23" height="25" viewBox="0 0 23 25" fill="none" xmlns="http://www.w3.org/2000/svg">
<g clip-path="url(#clip0_1_192)">
<path d="M19.1176 1.90767e-05C19.6096 0.150032 20.1256 0.24604 20.5937 0.462059C22.1718 1.19412 23.1439 2.94027 22.9879 4.66843C22.8259 6.47458 21.5598 8.01672 19.8436 8.46076C18.2055 8.88679 16.7834 8.46676 15.5953 7.27265C15.5412 7.21865 15.4992 7.14664 15.4452 7.08064C15.2172 7.21865 15.0192 7.33866 14.8212 7.45267C12.727 8.71278 10.6388 9.97289 8.54464 11.227C8.37663 11.329 8.31662 11.413 8.38863 11.617C8.69465 12.4511 8.70665 13.3032 8.43063 14.1793C10.6988 15.3374 12.955 16.4955 15.1992 17.6476C15.4932 17.3655 15.7513 17.0655 16.0633 16.8315C17.5214 15.7394 19.1056 15.5714 20.7137 16.4234C22.2978 17.2695 23.0599 18.6616 22.9879 20.4618C22.8979 22.658 21.0617 24.4401 18.8415 24.5182C16.6333 24.5962 14.7012 22.964 14.4192 20.7858C14.3471 20.2218 14.3831 19.6697 14.5452 19.1297C14.5812 19.0037 14.5752 18.9317 14.4432 18.8657C12.253 17.7496 10.0688 16.6335 7.88458 15.5114C7.87258 15.5054 7.85458 15.4994 7.81858 15.4934C6.85849 16.7295 5.59838 17.3715 4.00824 17.2695C2.91615 17.2035 1.96807 16.7595 1.218 15.9554C-0.40814 14.2213 -0.396138 11.671 1.242 9.96689C2.80214 8.34075 5.68239 8.06472 7.56655 10.1409C9.93076 8.71878 12.301 7.29065 14.6832 5.85653C14.4792 5.28648 14.3651 4.71043 14.3891 4.11038C14.4792 2.0582 16.0453 0.324047 18.0795 0.0420227C18.1395 0.0360222 18.1995 0.0120201 18.2595 -0.00598145C18.5475 1.90767e-05 18.8295 1.90767e-05 19.1176 1.90767e-05Z" fill="#5282FF"/>
</g>
<defs>
<clipPath id="clip0_1_192">
<rect width="23" height="24.5301" fill="white"/>
</clipPath>
</defs>
</svg>
