<svg width="87" height="56" viewBox="0 0 87 56" fill="none" xmlns="http://www.w3.org/2000/svg">
<path fill-rule="evenodd" clip-rule="evenodd" d="M82.4907 0.0162338L61.2549 0.0107168C61.2523 0.0107168 61.2494 0.0107168 61.2494 0.0107168C61.233 0.0107168 61.2169 0.0136617 61.2009 0.0136617C58.2836 0.103756 54.6501 2.46243 53.9884 5.37087L43.9458 50.165C43.284 53.1006 45.0843 55.4893 47.9805 55.5333H70.2896C73.1416 55.391 75.913 53.0595 76.5634 50.1841L86.6064 5.38963C87.2787 2.42418 85.435 0.0162338 82.4907 0.0162338Z" fill="#01798A"/>
<path fill-rule="evenodd" clip-rule="evenodd" d="M43.9458 50.165L53.9884 5.37087C54.6501 2.46243 58.2836 0.103756 61.2009 0.0136617L37.5453 0.00512456C34.6198 0.0654343 30.9391 2.44066 30.2776 5.3708L20.232 50.1649C19.5678 53.1005 21.3707 55.4892 24.265 55.5332L47.9805 55.5333C45.0843 55.4893 43.284 53.1006 43.9458 50.165Z" fill="#024381"/>
<path fill-rule="evenodd" clip-rule="evenodd" d="M20.232 50.1649L30.2776 5.3708C30.9391 2.44066 34.6198 0.0654343 37.5453 0.00512456L18.0574 0C15.1156 0 11.3439 2.40244 10.6716 5.37082L0.626025 50.1649C0.564893 50.4383 0.530977 50.7062 0.510742 50.9684V51.7994C0.707393 53.9393 2.32863 55.4976 4.65907 55.5332L24.265 55.5332C21.3707 55.4892 19.5678 53.1005 20.232 50.1649Z" fill="#DD0228"/>
<path fill-rule="evenodd" clip-rule="evenodd" d="M37.9561 32.6454H38.3249C38.6638 32.6454 38.8918 32.5307 38.9987 32.3038L39.9571 30.858H42.5234L41.9883 31.8089H45.0654L44.675 33.2659H41.0135C40.5918 33.9055 40.0727 34.2061 39.4485 34.1705H37.5413L37.9561 32.6454ZM37.5347 34.7336H44.2763L43.8465 36.3163H41.1353L40.7217 37.844H43.3599L42.9302 39.4266H40.2919L39.6791 41.684C39.5273 42.0613 39.7268 42.231 40.2744 42.1925H42.4245L42.0262 43.6632H37.8981C37.1156 43.6632 36.8472 43.2119 37.0926 42.3074L37.8762 39.4266H36.1898L36.6182 37.844H38.3048L38.7182 36.3163H37.1061L37.5347 34.7336ZM48.2949 30.8471L48.1888 31.7736C48.1888 31.7736 49.4605 30.8111 50.6154 30.8111H54.8833L53.2511 36.7668C53.1158 37.4477 52.5354 37.7863 51.5103 37.7863H46.673L45.54 41.9683C45.4747 42.1924 45.567 42.3073 45.811 42.3073H46.7628L46.4129 43.6054H43.9932C43.0644 43.6054 42.6781 43.3239 42.8313 42.7583L46.0332 30.8471H48.2949ZM51.909 32.5306H48.0998L47.6441 34.1376C47.6441 34.1376 48.2785 33.6759 49.3386 33.6594C50.3958 33.6427 51.6026 33.6594 51.6026 33.6594L51.909 32.5306ZM50.529 36.2587C50.8106 36.2972 50.9682 36.1848 50.9872 35.9197L51.2203 35.0726H47.4052L47.0852 36.2587H50.529ZM47.9557 38.1828H50.1547L50.1139 39.142H50.6994C50.9952 39.142 51.1419 39.0465 51.1419 38.858L51.3152 38.2375H53.1428L52.8988 39.142C52.6923 39.8964 52.1451 40.29 51.2557 40.3285H50.0843L50.0789 41.9683C50.0573 42.2309 50.293 42.3647 50.7782 42.3647H51.8792L51.5238 43.663H48.883C48.1428 43.6985 47.7799 43.343 47.7875 42.5888L47.9557 38.1828Z" fill="white"/>
<path fill-rule="evenodd" clip-rule="evenodd" d="M21.3084 22.9123C21.0102 24.3855 20.3188 25.517 19.2463 26.3206C18.1835 27.1105 16.8128 27.5067 15.1346 27.5067C13.5553 27.5067 12.3974 27.1022 11.6585 26.2904C11.1461 25.7136 10.8912 24.9812 10.8912 24.0956C10.8912 23.7294 10.9347 23.3358 11.0214 22.9123L12.8095 14.2208H15.5101L13.7463 22.8138C13.6921 23.0517 13.6704 23.2731 13.6732 23.4726C13.6704 23.9128 13.7788 24.2734 13.9984 24.5548C14.3183 24.9731 14.8376 25.1807 15.5602 25.1807C16.3911 25.1807 17.0758 24.9759 17.6073 24.563C18.1388 24.1531 18.4858 23.571 18.6416 22.8138L20.4109 14.2208H23.0978L21.3084 22.9123Z" fill="white"/>
<path fill-rule="evenodd" clip-rule="evenodd" d="M32.6499 19.4932H34.7649L33.1082 27.25H30.9973L32.6499 19.4932ZM33.3157 16.6671H35.4495L35.0509 18.5499H32.9172L33.3157 16.6671Z" fill="white"/>
<path fill-rule="evenodd" clip-rule="evenodd" d="M36.6371 26.6594C36.0839 26.1264 35.8047 25.4076 35.802 24.4948C35.802 24.3389 35.8114 24.1613 35.8319 23.9671C35.8523 23.7703 35.8781 23.579 35.9145 23.4014C36.1653 22.1415 36.6995 21.1411 37.5224 20.4031C38.3439 19.6624 39.3351 19.2907 40.4955 19.2907C41.4458 19.2907 42.1995 19.5586 42.7514 20.0942C43.303 20.6328 43.5795 21.3596 43.5795 22.2837C43.5795 22.442 43.5675 22.6252 43.5471 22.8219C43.5226 23.0215 43.4931 23.2128 43.4588 23.4014C43.2136 24.6423 42.681 25.6317 41.858 26.3561C41.035 27.0859 40.0468 27.4491 38.8944 27.4491C37.9401 27.4491 37.1889 27.1869 36.6371 26.6594ZM40.6676 25.1234C41.0405 24.7161 41.3075 24.0983 41.4702 23.2758C41.4946 23.1473 41.5162 23.0133 41.5297 22.8795C41.5432 22.7482 41.5486 22.6252 41.5486 22.5131C41.5486 22.0348 41.4279 21.6632 41.1853 21.4007C40.9442 21.1356 40.6013 21.0045 40.158 21.0045C39.5721 21.0045 39.095 21.212 38.7211 21.6276C38.3439 22.0431 38.0768 22.6717 37.9086 23.5081C37.8857 23.6365 37.8667 23.765 37.8492 23.8907C37.8357 24.0191 37.8317 24.1394 37.8342 24.2487C37.8342 24.7243 37.955 25.0906 38.1976 25.3502C38.4387 25.6099 38.7802 25.7383 39.2292 25.7383C39.8177 25.7383 40.2948 25.5333 40.6676 25.1234Z" fill="white"/>
<path fill-rule="evenodd" clip-rule="evenodd" d="M57.3019 32.7107L57.8119 30.9014H60.3903L60.2791 31.5653C60.2791 31.5653 61.5967 30.9014 62.5456 30.9014C63.4948 30.9014 65.734 30.9014 65.734 30.9014L65.2272 32.7107H64.7256L62.3205 41.2438H62.8221L62.3449 42.9384H61.8433L61.6347 43.6736H59.1376L59.3459 42.9384H54.4196L54.8997 41.2438H55.3933L57.8006 32.7107H57.3019ZM60.0839 32.7108L59.4276 35.0202C59.4276 35.0202 60.5505 34.5858 61.5183 34.4628C61.7321 33.6564 62.0115 32.7108 62.0115 32.7108H60.0839ZM59.1238 36.1026L58.4653 38.5215C58.4653 38.5215 59.7096 37.9038 60.5636 37.8518C60.8102 36.9169 61.0572 36.1026 61.0572 36.1026H59.1238ZM59.6064 41.2438L60.1 39.4891H58.1753L57.6791 41.2438H59.6064ZM65.8426 30.7894H68.2667L68.3696 31.6911C68.3536 31.9206 68.4889 32.0302 68.7764 32.0302H69.2047L68.7713 33.5579H66.9896C66.3092 33.5934 65.9594 33.3313 65.9269 32.7653L65.8426 30.7894ZM65.1324 34.0665H72.9844L72.5236 35.7065H70.0236L69.595 37.2313H72.0924L71.6288 38.8686H68.8471L68.2179 39.8282H69.5793L69.8938 41.7495C69.9313 41.9408 70.0995 42.0337 70.387 42.0337H70.8098L70.3654 43.616H68.8687C68.0931 43.6545 67.6922 43.3921 67.6593 42.8264L67.2986 41.0717L66.0597 42.9384C65.7668 43.4659 65.3166 43.712 64.7096 43.6736H62.4237L62.8684 42.0909H63.5816C63.8745 42.0909 64.1182 41.9597 64.3378 41.6947L66.2767 38.8686H63.7768L64.2401 37.2313H66.9516L67.3828 35.7065H64.6687L65.1324 34.0665Z" fill="white"/>
<path fill-rule="evenodd" clip-rule="evenodd" d="M23.7961 19.4903H25.7034L25.4853 20.6108L25.759 20.2911C26.3773 19.6243 27.1283 19.2935 28.015 19.2935C28.8175 19.2935 29.3964 19.5286 29.7597 20.0014C30.1175 20.4743 30.2152 21.1276 30.0459 21.9666L28.9951 27.2526H27.0348L27.9837 22.4613C28.0815 21.9666 28.0544 21.5976 27.9037 21.3597C27.7547 21.122 27.4699 21.0046 27.0592 21.0046C26.5549 21.0046 26.1305 21.1629 25.7848 21.4773C25.4377 21.7944 25.2087 22.2345 25.0961 22.7947L24.2217 27.2526H22.2574L23.7961 19.4903Z" fill="white"/>
<path fill-rule="evenodd" clip-rule="evenodd" d="M45.6698 19.4903H47.5788L47.3622 20.6108L47.6328 20.2911C48.2515 19.6243 49.0052 19.2935 49.8891 19.2935C50.6917 19.2935 51.2717 19.5286 51.6322 20.0014C51.9878 20.4743 52.0907 21.1276 51.9171 21.9666L50.8705 27.2526H48.9075L49.8567 22.4613C49.9541 21.9666 49.9271 21.5976 49.7779 21.3597C49.6232 21.122 49.3438 21.0046 48.9348 21.0046C48.4303 21.0046 48.0075 21.1629 47.6576 21.4773C47.3104 21.7944 47.0802 22.2345 46.9718 22.7947L46.0934 27.2526H44.1315L45.6698 19.4903Z" fill="white"/>
<path fill-rule="evenodd" clip-rule="evenodd" d="M55.1057 14.6798H60.6478C61.7134 14.6798 62.5375 14.9233 63.104 15.4013C63.668 15.8853 63.9504 16.5796 63.9504 17.4842V17.5114C63.9504 17.6835 63.9391 17.8777 63.923 18.088C63.8956 18.2958 63.8603 18.5062 63.8147 18.725C63.5706 19.9221 63.0037 20.8843 62.1282 21.614C61.2494 22.341 60.2086 22.7073 59.0102 22.7073H56.0382L55.1192 27.2526H52.5459L55.1057 14.6798ZM56.4909 20.5208H58.9558C59.5982 20.5208 60.1079 20.3703 60.4796 20.0725C60.8484 19.7719 61.0925 19.3128 61.2278 18.6896C61.2493 18.5745 61.2628 18.4708 61.2793 18.3752C61.2876 18.2851 61.2982 18.1947 61.2982 18.1075C61.2982 17.6618 61.1414 17.3393 60.8265 17.137C60.5121 16.9318 60.0189 16.8337 59.3352 16.8337H57.242L56.4909 20.5208Z" fill="white"/>
<path fill-rule="evenodd" clip-rule="evenodd" d="M75.468 28.7531C74.6545 30.4968 73.8792 31.5133 73.424 31.9862C72.968 32.4538 72.0655 33.5416 69.8909 33.4595L70.078 32.1286C71.9079 31.56 72.8976 28.9988 73.4616 27.8647L72.7892 19.512L74.2047 19.4929H75.3921L75.5198 24.7325L77.7454 19.4929H79.9988L75.468 28.7531Z" fill="white"/>
<path fill-rule="evenodd" clip-rule="evenodd" d="M69.1671 20.1244L68.2719 20.745C67.3365 20.0071 66.4825 19.5505 64.8344 20.3212C62.589 21.3707 60.7128 29.4201 66.8948 26.7688L67.2472 27.1897L69.6793 27.2526L71.2764 19.9385L69.1671 20.1244ZM67.7841 24.1231C67.3934 25.2848 66.5208 26.0527 65.8375 25.8341C65.1543 25.6209 64.9102 24.5001 65.306 23.3359C65.6964 22.1715 66.5748 21.4063 67.2526 21.6249C67.9359 21.8381 68.1825 22.9587 67.7841 24.1231Z" fill="white"/>
</svg>
