<svg width="54" height="70" viewBox="0 0 54 70" fill="none" xmlns="http://www.w3.org/2000/svg">
<g clip-path="url(#clip0_191_414)">
<path d="M13.484 0C14.0577 0.57377 14.0577 1.14754 14.0577 1.72131C13.484 4.01639 13.484 6.59836 14.0577 8.89344C14.0577 9.18033 14.0577 9.18033 14.3446 9.46721C14.3446 9.46721 14.6315 9.46721 14.6315 9.18033C22.9512 3.72951 33.8528 4.30328 41.8856 10.6148C44.1807 12.3361 46.1889 14.3443 47.6233 16.6393C47.9102 17.2131 48.1971 17.5 47.6233 18.0738C47.3364 18.6475 46.4758 18.6475 45.902 18.0738C45.0413 16.9262 44.1807 16.0656 43.32 14.918C38.7299 10.041 32.7053 7.45902 25.82 7.7459C25.2463 7.7459 24.6725 7.7459 24.0987 8.03279C24.0987 9.46721 23.525 9.7541 22.3774 9.18033C21.2299 8.60656 20.3692 8.60656 19.5086 9.18033C18.0741 10.041 16.6397 10.6148 14.9184 11.4754C15.4922 12.0492 15.7791 12.623 16.3528 12.9098C16.9266 13.4836 16.9266 14.0574 16.6397 14.3443C16.3528 14.918 15.4922 14.918 14.9184 14.3443C13.1971 12.623 12.0495 10.3279 11.7627 8.03279C11.4758 5.7377 11.4758 3.44262 12.0495 1.14754C12.0495 0.860656 12.6233 0.286885 12.9102 0C12.9102 0 13.1971 0 13.484 0Z" fill="white"/>
<path d="M4.30212 0C4.87589 0.573771 4.87589 1.14754 4.87589 1.72131C3.72835 6.31148 4.01524 10.6148 6.02343 14.6311C6.88409 16.0656 7.74474 17.5 8.89228 18.6475C9.75294 19.7951 10.6136 20.6557 11.7611 21.8033C12.3349 22.3771 12.3349 22.9508 11.7611 23.5246C11.1874 23.8115 10.6136 23.8115 10.0398 23.2377C8.31851 21.2295 6.5972 19.5082 5.16278 17.5C2.58081 13.7705 1.72016 9.18033 2.29393 4.59016C2.29393 3.44262 2.58081 2.29508 2.8677 1.14754C2.8677 0.860656 3.15458 0.286885 3.44147 0C3.72835 0 4.01524 0 4.30212 0Z" fill="white"/>
<path d="M19.5071 61.6801C19.5071 63.1146 19.5071 64.549 19.5071 65.9834C19.5071 66.8441 19.5071 67.4178 19.5071 68.2785C19.5071 69.426 19.2202 69.9998 18.3596 69.9998C17.4989 69.9998 17.212 69.426 17.212 68.2785C17.212 65.9834 17.212 63.9752 17.212 61.6801C17.212 61.1064 17.212 60.8195 16.6383 60.8195C15.2038 60.2457 14.0563 59.6719 12.6219 59.0982C12.0481 58.8113 11.7612 58.2375 12.0481 57.6637C12.335 57.09 12.6219 56.8031 13.4825 57.09C13.7694 57.3769 13.7694 57.3769 14.0563 57.3769C16.0645 58.2375 18.0727 59.0982 20.0809 59.6719C20.3678 59.6719 20.9415 59.6719 21.5153 59.6719C22.0891 59.6719 22.6628 59.3851 23.2366 59.0982C23.8104 58.8113 24.3842 58.5244 24.671 59.0982C25.2448 59.6719 24.9579 59.9588 24.671 60.8195C26.1055 60.8195 27.5399 60.8195 28.9743 60.8195C37.5809 59.9588 43.6055 55.3687 47.6219 47.9097C51.9251 39.59 52.212 30.6965 48.1956 22.09C48.1956 21.8031 47.9087 21.2293 47.9087 20.9424C47.9087 20.6556 48.4825 20.3687 48.7694 20.0818C49.3432 19.7949 49.6301 20.0818 49.9169 20.6556C50.4907 22.3769 51.3514 24.0982 51.6383 25.8195C54.2202 35.2867 53.0727 44.1801 47.335 52.2129C43.3186 57.9506 37.8678 61.3933 31.2694 62.5408C27.5399 63.1146 24.0973 63.1146 20.3678 61.967C20.0809 61.967 19.794 61.967 19.5071 61.6801Z" fill="white"/>
<path d="M6.3112 65.9834C6.3112 64.549 6.02431 63.1146 6.02431 61.6801C5.73743 59.6719 4.87677 57.9506 3.72923 56.2293C2.58169 54.7949 1.72104 53.3605 0.86038 51.6391C-0.860931 47.6228 0.573495 43.3195 4.303 41.5982C6.88497 40.4506 9.75382 40.4506 12.3358 41.5982C13.7702 42.1719 15.2046 43.3195 16.926 43.8932C17.7866 44.467 18.6473 44.7539 19.7948 45.3277C22.3768 46.1883 24.6719 44.467 24.385 41.5982C24.385 39.8769 23.8112 38.1555 22.6637 36.7211C21.2292 34.7129 19.5079 32.9916 18.0735 30.9834C16.926 29.549 15.4915 28.4014 14.0571 26.967C13.4833 26.6801 13.1964 26.3932 13.1964 26.3932C12.6227 25.8195 12.6227 25.2457 13.1964 24.9588C13.4833 24.6719 14.0571 24.6719 14.6309 24.9588C17.7866 28.1146 20.9423 30.9834 23.5243 34.426C24.9587 36.4342 25.8194 38.7293 26.1063 41.3113C26.3932 45.6146 22.9505 48.4834 18.9341 47.049C17.7866 46.7621 16.6391 46.1883 15.7784 45.6146C14.344 44.7539 12.9096 43.8932 11.1882 43.3195C9.75382 42.7457 8.03251 42.7457 6.59808 43.0326C3.44235 43.8932 1.43415 47.049 2.58169 50.4916C2.86858 51.6391 3.72923 53.0736 4.58989 53.9342C7.45874 57.3769 8.60628 61.3932 8.60628 65.6965C8.60628 66.8441 8.60628 67.9916 8.60628 69.1391C8.60628 69.9998 8.3194 70.2867 7.45874 70.2867C6.88497 70.2867 6.3112 69.7129 6.3112 69.1391C6.3112 67.9916 6.3112 66.8441 6.3112 65.9834Z" fill="white"/>
<path d="M27.8286 25.5329C28.1155 25.8198 28.1155 25.8198 28.4023 26.1067C28.6892 26.6804 28.6892 26.9673 28.4023 27.5411C28.1155 27.828 27.5417 28.1149 26.9679 27.5411C26.1073 26.6804 25.2466 26.1067 24.386 25.246C23.8122 24.6722 24.0991 24.0985 24.386 23.8116C25.2466 22.9509 25.8204 22.3771 26.681 21.8034C27.2548 21.2296 27.8286 21.2296 28.1155 21.8034C28.6892 22.3771 28.4023 22.664 28.1155 23.2378C28.1155 23.2378 28.1155 23.2378 27.8286 23.5247C28.4023 23.5247 28.6892 23.5247 28.9761 23.5247C29.5499 23.5247 30.1237 23.5247 30.6974 23.5247C31.2712 23.5247 31.5581 23.8116 31.845 24.3853C31.845 24.9591 31.5581 25.246 30.6974 25.5329C30.1237 25.5329 29.263 25.5329 28.6892 25.5329C28.4023 25.5329 28.1155 25.5329 27.8286 25.5329Z" fill="white"/>
<path d="M31.5565 31.8443C32.7041 31.8443 33.5647 31.8443 34.4254 31.8443C34.9992 31.8443 35.2861 32.1312 35.2861 32.7049C35.2861 33.2787 34.9992 33.5656 34.4254 33.8525C34.1385 33.8525 33.8516 33.8525 33.5647 33.8525C32.991 33.8525 32.1303 33.8525 31.5565 33.8525C31.8434 34.1394 31.8434 34.1394 31.8434 34.1394C32.4172 34.7131 32.4172 35.2869 31.8434 35.5738C31.5565 35.8607 30.9828 35.8607 30.409 35.5738C29.5483 35 28.9746 34.1394 28.1139 33.5656C27.5402 32.9918 27.5402 32.4181 28.1139 31.8443C28.6877 31.2705 29.5483 30.4099 30.1221 29.8361C30.6959 29.2623 31.2697 29.2623 31.5565 29.8361C31.8434 30.4099 31.8434 30.6967 31.5565 31.2705C31.8434 31.5574 31.5565 31.5574 31.5565 31.8443Z" fill="white"/>
<path d="M37.2964 47.6227C36.4357 47.6227 35.862 47.0489 36.1488 46.1882C36.4357 45.0407 37.0095 43.8932 37.2964 43.0325C37.5833 42.4587 37.8702 42.1719 38.4439 42.4587C39.0177 42.7456 39.3046 43.0325 39.0177 43.6063C38.7308 44.7538 38.157 45.9014 37.5833 47.0489C37.8702 47.3358 37.2964 47.3358 37.2964 47.6227Z" fill="white"/>
<path d="M36.1462 49.9182C35.8593 50.2051 35.8593 50.492 35.8593 50.7788C35.2855 51.6395 34.7117 52.5002 33.8511 53.3608C33.2773 53.9346 32.7035 53.9346 32.4167 53.6477C31.8429 53.3608 31.8429 52.787 32.4167 52.2133C32.9904 51.3526 33.5642 50.492 34.138 49.6313C34.4249 49.3444 34.9986 49.0575 35.2855 49.3444C35.8593 49.3444 36.1462 49.6313 36.1462 49.9182Z" fill="white"/>
<path d="M30.6954 12.3361C30.4085 12.623 30.4085 12.9099 30.1216 13.1968C29.8347 13.1968 29.2609 13.1968 28.9741 13.1968C28.1134 12.623 26.9659 11.7623 26.1052 11.1886C25.5314 10.6148 25.5314 10.041 25.8183 9.75414C26.1052 9.18037 26.679 9.18036 26.9659 9.46725C28.1134 10.041 28.9741 10.9017 30.1216 11.7623C30.4085 11.7623 30.4085 12.0492 30.6954 12.3361Z" fill="white"/>
<path d="M35.572 17.7864C35.2851 18.0732 35.2851 18.3601 34.9983 18.647C34.7114 18.647 34.1376 18.647 33.8507 18.3601C32.9901 17.4995 32.4163 16.6388 31.5556 15.4913C31.2687 14.9175 31.2687 14.6306 31.8425 14.0569C32.1294 13.77 32.7032 13.4831 32.9901 14.0569C33.8507 15.2044 34.7114 16.065 35.572 17.2126C35.572 17.4995 35.572 17.4995 35.572 17.7864Z" fill="white"/>
<path d="M37.0064 20.3691C37.0064 20.3691 37.5802 20.656 37.5802 20.9429C38.154 22.0905 38.4409 22.9511 39.0146 24.0986C39.3015 24.6724 39.0146 25.2462 38.4408 25.5331C37.8671 25.82 37.2933 25.5331 37.0064 24.9593C36.7195 24.0986 36.1458 22.9511 35.8589 22.0905C35.2851 20.9429 35.8589 20.3691 37.0064 20.3691Z" fill="white"/>
<path d="M40.4521 31.2701C40.4521 31.557 40.4521 31.8438 40.4521 31.8438C40.4521 32.4176 40.1652 32.7045 39.5914 32.7045C39.0177 32.7045 38.7308 32.4176 38.4439 31.8438C38.157 30.6963 38.157 29.5488 37.8701 28.1143C37.8701 27.5406 38.157 27.2537 38.7308 26.9668C39.3045 26.9668 39.8783 27.2537 39.8783 27.8275C40.1652 29.2619 40.4521 30.4094 40.4521 31.2701Z" fill="white"/>
<path d="M40.4504 36.7216C40.4504 37.2953 40.1635 38.4429 40.1635 39.3035C40.1635 40.1642 39.5897 40.4511 39.0159 40.1642C38.4422 40.1642 38.1553 39.5904 38.1553 39.0167C38.1553 38.156 38.4422 37.2953 38.4422 36.1478C38.4422 35.2871 38.729 34.7134 39.5897 34.7134C40.1635 35.0003 40.7372 35.2871 40.4504 36.7216Z" fill="white"/>
<path d="M31.5569 55.943C31.27 56.2298 31.27 56.5167 30.9832 56.8036C30.1225 57.3774 29.2618 58.238 28.4012 58.8118C27.8274 59.0987 27.2536 59.0987 26.9668 58.5249C26.6799 57.9511 26.6799 57.3774 27.2536 57.0905C28.1143 56.5167 28.975 55.6561 29.8356 55.0823C30.1225 54.7954 30.6963 54.7954 30.9832 54.7954C30.9832 55.0823 31.27 55.3692 31.5569 55.943Z" fill="white"/>
</g>
<defs>
<clipPath id="clip0_191_414">
<rect width="53.0738" height="70" fill="white"/>
</clipPath>
</defs>
</svg>
