<svg width="71" height="70" viewBox="0 0 71 70" fill="none" xmlns="http://www.w3.org/2000/svg">
<path d="M34.9996 52.3194C30.3088 52.3194 25.2573 51.2369 20.2057 49.4327C12.6284 46.5462 6.4944 41.8554 1.44286 36.4431C1.44286 36.0822 1.08203 35.7214 1.08203 35.3606V34.9998C1.44286 34.6389 1.80368 34.2781 2.16451 33.5565C2.88615 32.474 3.96863 31.3915 5.0511 30.309C10.8243 24.8967 17.68 21.2884 25.2573 19.1235C28.5047 18.4018 31.7521 17.6802 34.9996 17.6802C38.9686 17.6802 42.9377 18.4018 46.9068 19.4843C55.5666 22.3709 62.7831 27.0616 68.5563 33.5565C69.2779 34.2781 69.2779 34.9998 68.5563 35.7214C60.9789 44.0204 51.5975 49.4327 40.7728 51.2369C38.9686 52.3193 37.1645 52.3194 34.9996 52.3194ZM34.9996 20.2059C26.7006 20.2059 20.2057 27.0616 20.2057 34.9998C20.2057 38.9688 21.649 42.5771 24.5356 45.4637C27.4222 48.3503 31.0305 49.7936 34.9996 49.7936C38.9686 49.7936 42.5769 48.3503 45.4635 45.4637C48.3501 42.5771 49.7934 38.9688 49.7934 34.9998C50.1542 26.7008 43.2985 20.2059 34.9996 20.2059ZM49.0717 24.5358C53.7624 31.3915 53.7624 38.2472 49.0717 45.4637L47.2676 47.9895L50.1542 46.907C56.2882 44.3812 61.3398 40.773 66.0305 35.7214L66.7521 34.9998L66.0305 34.2781C61.3398 29.5874 55.9274 25.9791 50.1542 23.0925L47.2676 22.0101L49.0717 24.5358ZM20.2057 23.4534C14.0717 25.9791 9.02018 29.5874 4.32945 34.2781L3.6078 34.9998L4.32945 35.7214C9.02018 40.4121 14.4325 44.0204 20.2057 46.907L23.0923 47.9895L21.2882 45.4637C16.5975 38.608 16.5975 31.7523 21.2882 24.5358L23.0923 22.0101L20.2057 23.4534Z" fill="white"/>
<path d="M34.6406 69.2785C33.9189 68.9177 33.9189 68.5568 33.9189 67.4744C33.9189 66.7527 33.9189 65.6702 33.9189 64.5878V63.1445C33.9189 62.4228 34.2798 61.7012 35.0014 61.7012C35.7231 61.7012 36.0839 62.062 36.0839 63.1445V64.5878C36.0839 65.6702 36.0839 66.3919 36.0839 67.4744C36.0839 68.5568 35.7231 68.9177 35.3622 69.2785H34.6406Z" fill="white"/>
<path d="M19.1235 66.0305C18.7627 66.0305 18.7627 66.0305 19.1235 66.0305C18.4018 66.0305 18.041 65.3088 18.041 64.948C18.041 64.5872 18.041 64.5872 18.4018 64.2263C19.1235 62.7831 20.206 61.3398 20.9276 59.8965C21.2884 59.5356 21.6493 59.1748 22.0101 59.1748C22.3709 59.1748 22.3709 59.1748 22.7317 59.1748C23.4534 59.5356 23.4534 60.2573 23.0926 60.9789C22.3709 62.4222 21.2884 64.2264 20.5668 65.6697C19.8451 66.0305 19.4843 66.0305 19.1235 66.0305Z" fill="white"/>
<path d="M51.2362 66.0305C50.8754 66.0305 50.5146 66.0305 50.5146 65.6697C49.4321 63.8655 48.7104 62.4222 47.628 60.6181C47.2671 60.2573 47.628 59.5356 47.9888 59.1748C47.9888 59.1748 48.3496 59.1748 48.7104 59.1748C49.0713 59.1748 49.4321 59.5356 49.7929 59.5356C50.8754 60.9789 51.597 62.7831 52.6795 64.2263L53.0403 64.5872C53.0403 64.948 53.0403 65.6697 52.3187 65.6697C51.2362 66.0305 51.2362 66.0305 51.2362 66.0305Z" fill="white"/>
<path d="M21.6513 11.1857C21.2904 11.1857 20.9296 11.1857 20.5688 10.8249C19.8471 9.02078 18.7647 7.21666 18.043 5.77336C17.6822 5.05171 18.043 4.33006 18.4038 3.96924C18.7647 3.96924 18.7647 3.96924 19.1255 3.96924C19.4863 3.96924 19.8471 4.33006 20.208 4.69089C21.2904 6.13419 22.0121 7.93831 23.0946 9.74243C23.4554 10.1033 23.4554 10.4641 23.0946 10.8249C22.3729 10.8249 22.0121 11.1857 21.6513 11.1857Z" fill="white"/>
<path d="M48.3498 11.1853C47.9889 11.1853 47.9889 11.1853 47.6281 11.1853C46.9065 10.8244 46.9065 10.1028 47.2673 9.74196C47.9889 8.29866 49.0714 6.49454 49.7931 5.05124C50.1539 4.69041 50.5147 4.32959 50.8755 4.32959C51.5972 4.69041 51.958 5.05124 51.958 5.41206C51.958 5.77289 51.958 5.77289 51.5972 5.77289C51.2364 7.21619 50.5147 9.02031 49.4322 10.4636C49.0714 10.8244 48.7106 11.1853 48.3498 11.1853Z" fill="white"/>
<path d="M35.0014 7.93819C34.2798 7.93819 33.9189 7.57736 33.9189 6.85572C33.9189 5.41242 33.9189 3.60829 33.9189 2.16499C33.9189 1.44334 34.2798 1.08252 35.0014 1.08252C35.7231 1.08252 36.0839 1.44334 36.0839 2.16499C36.0839 2.88664 36.0839 5.41242 36.0839 5.41242C36.0839 5.77324 36.0839 6.49489 36.0839 6.85572C36.0839 7.57736 35.7231 7.93819 35.0014 7.93819Z" fill="white"/>
<path d="M35.0002 41.1343C31.7528 41.1343 28.8662 38.6085 28.8662 35.0002C28.8662 31.7528 31.7528 28.8662 35.0002 28.8662C38.2477 28.8662 41.1342 31.7528 41.1342 35.0002C41.1342 38.6085 38.6085 41.1343 35.0002 41.1343ZM35.0002 31.392C32.8353 31.392 31.0312 33.1961 31.0312 35.0002C31.0312 36.0827 31.392 37.1652 32.1136 37.8868C32.8353 38.6085 33.9178 38.9693 34.6394 38.9693C36.8044 38.9693 38.6085 37.1652 38.6085 35.0002C38.9693 32.8353 37.1652 31.392 35.0002 31.392Z" fill="white"/>
</svg>
