<svg width="66" height="70" viewBox="0 0 66 70" fill="none" xmlns="http://www.w3.org/2000/svg">
<g clip-path="url(#clip0_190_365)">
<path d="M38.4661 59.2655C34.6642 61.5019 30.8623 61.5019 27.0604 59.2655C26.6131 60.831 26.1658 62.3965 25.4949 63.962C24.6003 66.4221 22.8112 68.4348 20.3511 69.553C20.1275 69.553 19.9038 69.7767 19.6802 69.7767C19.2329 70.0003 18.7856 69.7767 18.562 69.3294C18.3383 68.8821 18.562 68.4348 19.0093 68.2112C23.0348 66.4221 24.3767 63.0674 25.0476 59.2655C25.2712 58.5946 25.0476 58.3709 24.3767 57.9236C19.6802 55.0163 16.5492 51.2144 14.9837 45.847C14.7601 45.3997 14.5364 45.176 14.0891 45.176C9.83994 44.7288 6.4853 39.1377 8.0508 35.1121C8.27444 34.6649 8.27444 34.4412 8.49808 33.9939C9.16901 33.323 8.94537 32.6521 8.94537 31.9812C8.27444 26.3901 8.27444 20.799 10.0636 15.4316C11.4054 11.4061 13.8655 8.49873 16.9965 5.81502C20.5748 2.68403 24.824 0.67125 29.5204 0.000323057C33.546 -0.670604 37.3479 0.000322998 41.1498 1.78946C46.9645 4.47317 51.4374 8.27508 54.1211 13.8661C55.2393 16.3262 55.9102 18.7863 56.1339 21.47C56.5811 25.2719 56.5811 29.2974 55.9102 33.0994C55.9102 33.323 55.9102 33.5466 56.1339 33.5466C57.4757 35.3358 57.6994 37.3486 57.0284 39.3613C56.1339 42.2687 54.3447 44.2815 51.4374 44.9524C50.3192 45.176 49.8719 45.6233 49.6482 46.7415C48.0827 51.6617 44.7281 55.2399 40.4789 57.9236C39.808 58.3709 39.5843 58.5946 39.808 59.4891C40.2553 61.7256 40.9262 63.7383 42.268 65.7511C43.1626 66.8693 44.0572 67.7639 45.399 68.4348C45.399 68.4348 45.6227 68.4348 45.6227 68.6585C46.07 68.8821 46.2936 69.3294 46.07 69.7767C45.8463 70.224 45.399 70.4476 44.9518 70.224C42.7153 69.3294 41.1498 67.7639 40.0316 65.7511C39.3607 63.5147 38.6898 61.5019 38.4661 59.2655ZM50.3192 32.2048C50.3192 29.9684 50.0955 26.8374 49.201 23.93C49.201 23.4828 48.7537 23.2591 48.53 23.0355C47.8591 22.3645 47.1882 21.9173 46.7409 21.47C45.8463 20.3518 45.1754 19.2336 44.2808 18.1153C43.3863 16.9971 42.268 16.3262 40.9262 16.3262C40.0316 16.3262 39.3607 15.8789 38.9134 15.208C38.0188 13.4189 36.677 12.5243 34.8879 12.077C31.7569 11.1824 28.1786 12.5243 26.1658 15.208C24.824 16.9971 23.4821 18.5626 22.1403 20.1281C20.5748 21.6936 18.562 22.8118 16.3256 23.4828C16.1019 23.4828 15.8783 23.93 15.8783 24.1537C14.5364 30.6393 14.5364 37.3486 16.1019 43.8342C17.6674 50.9907 22.1403 55.6872 28.8495 58.5946C30.415 59.2655 31.7569 59.9364 33.546 59.4891C40.4789 57.7 45.6227 53.8981 48.3064 46.9652C49.8719 42.2687 50.3192 37.5722 50.3192 32.2048ZM54.3447 32.2048C54.3447 31.9812 54.3447 31.7575 54.5684 31.5339C54.792 28.6265 55.0156 25.7192 54.792 22.5882C54.5684 20.1281 54.3447 17.6681 53.2265 15.208C50.9901 10.0642 46.9645 6.48595 42.0444 3.80224C38.2425 2.0131 34.2169 1.11853 30.1914 1.56582C25.0476 2.46039 20.5748 4.69681 16.9965 8.49873C14.0891 11.4061 12.0764 14.3134 11.1818 17.8917C10.2872 22.1409 10.0636 26.3901 10.5109 30.6393C10.5109 31.0866 10.7345 31.5339 10.7345 31.9812C11.6291 31.7575 12.3 31.5339 13.1946 31.5339C13.4182 29.0738 13.6419 26.3901 14.0891 23.4828C13.6419 23.2591 13.1946 23.0355 13.1946 22.5882C13.1946 22.1409 13.6419 21.9173 14.0891 21.9173C16.7728 21.9173 19.2329 20.799 21.022 18.7863C22.3639 17.4444 23.4821 15.8789 24.6003 14.3134C28.4022 9.16965 36.4534 8.49873 40.2553 14.0898C40.4789 14.3134 40.7025 14.5371 40.9262 14.5371C43.1626 14.5371 44.7281 15.6553 46.07 17.4444C46.7409 18.339 47.4118 19.2336 47.8591 20.1281C48.7537 21.47 49.8719 22.1409 51.4374 22.3645C52.1083 22.3645 52.5556 22.5882 52.3319 23.2591C52.1083 23.93 51.661 23.93 50.9901 23.93C51.2137 26.6137 51.661 29.0738 51.8847 31.7575C52.7792 31.7575 53.4501 31.9812 54.3447 32.2048ZM50.7664 43.6105C50.9901 43.6105 50.9901 43.6105 51.2137 43.6105C53.4501 42.716 55.0156 41.1505 55.4629 38.6904C55.9102 37.3486 55.6866 36.2304 55.0156 35.1121C54.3447 33.9939 53.0029 33.5466 51.8847 33.5466C51.8847 34.4412 51.8847 35.3358 51.8847 36.2304C52.3319 36.2304 52.5556 36.0067 53.0029 36.0067C53.8974 35.7831 54.3447 36.2304 54.3447 36.6776C54.3447 37.1249 54.1211 37.3486 53.2265 37.5722C52.7792 37.5722 52.3319 37.7958 52.1083 38.0195C51.8847 38.0195 51.661 38.4668 51.661 38.6904C51.4374 40.2559 51.2137 41.8214 50.7664 43.6105ZM14.0891 43.6105C14.3128 43.6105 14.3128 43.6105 14.0891 43.6105C14.0891 42.716 13.8655 41.8214 13.8655 41.1505C13.6419 40.4796 13.6419 39.585 13.6419 38.9141C13.6419 38.2431 13.1946 38.0195 12.7473 37.7958C12.5236 37.5722 12.0764 37.5722 11.6291 37.5722C10.9581 37.5722 10.7345 37.3486 10.7345 36.6776C10.7345 36.0067 11.1818 35.7831 11.6291 35.7831C12.0764 35.7831 12.7473 36.0067 13.1946 36.0067C13.1946 35.1121 13.1946 34.2176 13.1946 33.323C11.1818 33.0994 9.61629 34.6649 9.39265 36.6776C9.16901 39.1377 10.2872 40.9268 12.0764 42.2687C12.7473 42.9396 13.4182 43.3869 14.0891 43.6105Z" fill="white"/>
<path d="M35.3353 48.7547C34.8881 48.9783 34.2171 48.9783 33.7698 49.202C32.8753 49.4256 31.9807 49.4256 31.0861 48.9783C30.8625 48.7547 30.4152 48.7547 29.9679 48.7547C29.0734 48.7547 28.4024 48.5311 27.5079 48.5311C27.2842 48.5311 26.8369 48.3074 26.6133 48.0838C26.3896 47.8601 26.3896 47.4129 26.3896 47.4129C26.6133 47.1892 26.8369 47.1892 27.0606 47.1892C27.9551 47.1892 28.8497 47.4129 29.7443 47.1892C30.4152 47.1892 31.0861 46.9656 31.7571 47.4129C32.2043 47.6365 32.6516 47.6365 33.0989 47.4129C33.5462 47.1892 34.2171 47.1892 34.6644 47.1892C35.559 47.1892 36.6772 47.4129 37.5718 47.1892C37.7954 47.1892 38.2427 47.1892 38.2427 47.4129C38.2427 47.6365 38.2427 48.0838 38.019 48.0838C37.3481 48.3074 36.6772 48.5311 36.0063 48.7547C36.0063 48.9783 35.7826 48.9783 35.3353 48.7547C35.3353 48.9783 35.3353 48.9783 35.3353 48.7547Z" fill="white"/>
<path d="M42.9388 28.4026C44.9515 28.1789 46.7407 28.6262 48.3062 29.7444C48.5298 29.9681 48.5298 30.1917 48.7534 30.4154C48.5298 30.4154 48.0825 30.4154 47.8589 30.4154C46.517 29.9681 45.3988 29.5208 44.057 29.7444C41.8205 29.9681 39.5841 30.1917 37.3477 30.4154C36.9004 30.4154 36.4531 30.4154 36.4531 29.9681C36.4531 29.2972 36.9004 29.2972 37.1241 29.2972C39.1368 28.8499 40.926 28.6262 42.9388 28.4026Z" fill="white"/>
<path d="M22.3645 28.4033C24.1536 28.627 25.9428 28.8506 27.7319 29.0742C27.9556 29.0742 28.1792 29.0742 28.4028 29.2979C28.6265 29.5215 28.8501 29.7452 28.8501 29.9688C28.8501 30.1925 28.4028 30.4161 28.1792 30.4161C27.2846 30.4161 26.3901 30.4161 25.2718 30.1925C23.93 29.9688 22.5881 29.9688 21.2463 29.7452C19.9044 29.5215 18.5626 29.7452 17.4444 30.4161C17.2207 30.4161 16.9971 30.4161 16.5498 30.4161C16.7734 30.1925 16.7734 29.9688 16.9971 29.7452C18.5626 28.627 20.3517 28.4033 22.3645 28.4033Z" fill="white"/>
<path d="M45.847 35.5595C45.3997 35.7831 45.1761 35.7831 44.7288 36.0067C42.4924 37.3486 40.256 37.125 37.7959 36.454C37.5723 36.454 37.5723 36.0067 37.3486 35.7831C37.5723 35.5595 37.7959 35.3358 38.0196 35.3358C39.3614 35.3358 40.7033 35.3358 42.0451 35.1122C42.716 35.1122 43.387 34.6649 44.0579 34.4413C44.7288 34.2176 46.0707 34.4413 46.7416 34.8885C46.9652 35.1122 46.9652 35.3358 46.518 35.5595C46.518 35.7831 46.2943 35.7831 45.847 35.5595Z" fill="white"/>
<path d="M24.1526 37.1248C22.5871 37.1248 21.2452 36.6775 20.127 36.0066C19.9034 35.7829 19.6798 35.7829 19.4561 35.7829C19.2325 35.7829 18.7852 35.7829 18.5615 35.7829C18.3379 35.7829 18.3379 35.5593 18.1143 35.5593C18.1143 35.5593 18.3379 35.3356 18.3379 35.112C19.2325 34.6647 20.127 34.4411 21.2452 34.8883C22.8107 35.7829 24.5999 35.7829 26.389 35.5593C26.6127 35.5593 26.8363 35.5593 27.0599 35.5593C27.2836 35.5593 27.5072 35.7829 27.7309 36.0066C27.5072 36.2302 27.5072 36.6775 27.2836 36.6775C26.1654 36.6775 25.2708 36.9011 24.1526 37.1248Z" fill="white"/>
<path d="M32.6509 44.0581C31.7564 44.0581 30.8618 43.6108 30.1909 43.1636C29.7436 42.9399 29.7436 42.4926 29.9672 42.0453C30.1909 41.5981 30.6381 41.5981 31.0854 41.8217C32.2036 42.7163 33.3218 42.7163 34.4401 41.8217C34.6637 41.5981 35.3346 41.8217 35.5583 42.0453C36.0056 42.269 35.7819 42.7163 35.5583 43.1636C34.4401 43.6108 33.5455 44.0581 32.6509 44.0581Z" fill="white"/>
<path d="M32.6514 52.5562C32.2042 52.3326 31.7569 52.3326 31.3096 52.1089C31.0859 51.8853 30.8623 51.438 30.8623 51.2144C30.8623 50.9907 31.5332 50.7671 31.7569 50.7671C32.2042 50.7671 32.8751 50.7671 33.3224 50.7671C33.546 50.7671 34.2169 50.9907 34.2169 51.2144C34.2169 51.438 33.9933 51.8853 33.7697 52.1089C33.546 52.3326 33.0987 52.5562 32.6514 52.5562Z" fill="white"/>
<path d="M37.1251 22.5879C36.6778 22.5879 36.2305 22.5879 36.0069 22.3643C35.7832 22.3643 35.5596 21.917 35.5596 21.6934C35.7832 21.4697 36.0069 21.2461 36.2305 21.2461C36.4541 21.2461 36.9014 21.2461 37.1251 21.4697C37.3487 21.6934 37.5723 21.917 37.5723 22.1407C37.5723 22.1407 37.1251 22.3643 37.1251 22.5879Z" fill="white"/>
<path d="M24.377 23.4825C24.1533 23.2588 23.9297 23.2588 23.9297 23.0352C23.9297 22.8116 24.1533 22.5879 24.1533 22.3643C24.377 22.1406 24.8243 22.1406 25.2715 21.917C25.4952 21.917 25.7188 22.1406 25.9425 22.3643C25.9425 22.5879 25.9425 22.8116 25.7188 23.0352C25.2715 23.2588 24.8243 23.2588 24.377 23.4825Z" fill="white"/>
<path d="M33.0987 28.4029C33.0987 28.6265 33.0987 28.6265 33.0987 28.8502C32.875 29.0738 32.6514 29.2974 32.4278 29.5211C32.2041 29.2974 31.9805 29.0738 31.9805 28.8502C31.9805 28.6265 31.9805 28.4029 31.9805 27.9556C31.9805 27.5083 32.2041 27.2847 32.6514 27.2847C32.875 27.2847 33.0987 27.732 33.0987 27.9556C33.0987 27.9556 33.0987 28.1792 33.0987 28.4029Z" fill="white"/>
<path d="M31.9805 32.2046C31.9805 31.981 31.9805 31.7573 31.9805 31.7573C32.2041 31.5337 32.4278 31.3101 32.4278 31.3101C32.6514 31.3101 32.875 31.5337 32.875 31.7573C32.875 31.981 32.875 32.4283 32.875 32.8756C32.875 33.0992 32.4278 33.3228 32.4278 33.5465C32.2041 33.3228 31.9805 33.0992 31.9805 32.8756C31.9805 32.4283 31.9805 32.2046 31.9805 32.2046Z" fill="white"/>
<path d="M31.9805 36.0069C31.9805 35.7832 31.9805 35.5596 31.9805 35.5596C32.2041 35.336 32.4278 35.1123 32.4278 34.8887C32.6514 35.1123 32.875 35.336 33.0987 35.5596C33.0987 35.7832 33.0987 36.2305 33.0987 36.4542C33.0987 36.6778 32.875 36.9015 32.6514 37.1251C32.4278 36.9015 32.2041 36.6778 31.9805 36.4542C31.9805 36.4542 31.9805 36.2305 31.9805 36.0069Z" fill="white"/>
<path d="M32.4278 22.1407C32.2041 22.1407 31.9805 22.1407 31.7569 22.1407C31.5332 21.917 31.3096 21.6934 31.3096 21.6934C31.3096 21.4697 31.5332 21.2461 31.7569 21.2461C32.2041 21.2461 32.6514 21.2461 33.0987 21.2461C33.3224 21.2461 33.546 21.6934 33.546 21.6934C33.546 21.917 33.3224 22.1407 33.0987 22.3643C32.8751 22.1407 32.6514 22.1407 32.4278 22.1407Z" fill="white"/>
<path d="M26.166 53.0039C26.6133 53.4512 27.0606 53.8985 27.5079 54.1221C27.5079 54.1221 27.5079 54.5694 27.2842 54.5694C27.2842 54.5694 26.837 54.793 26.837 54.5694C26.3897 54.3458 25.9424 53.8985 25.7188 53.6748V53.2275C25.7188 53.2275 25.9424 53.2275 26.166 53.0039Z" fill="white"/>
<path d="M39.5847 53.6747C39.5847 54.122 38.4665 55.0165 38.0192 54.7929C37.5719 54.7929 37.3483 54.122 37.7956 53.8983C38.0192 53.6747 38.4665 53.451 38.6901 53.2274C39.1374 53.0037 39.5847 53.2274 39.5847 53.6747Z" fill="white"/>
<path d="M30.4161 56.5816C29.9688 56.358 29.5215 56.358 29.0742 56.1343C28.8506 56.1343 28.8506 55.687 28.8506 55.4634C28.8506 55.2398 29.2979 55.0161 29.5215 55.0161C29.9688 55.0161 30.1924 55.2398 30.6397 55.4634C30.8634 55.4634 31.087 55.9107 30.8634 56.1343C30.8634 56.358 30.6397 56.358 30.4161 56.5816Z" fill="white"/>
<path d="M34.6641 56.5816C34.4404 56.358 34.2168 56.358 34.2168 56.1343C34.2168 55.9107 34.4404 55.687 34.4404 55.4634C34.6641 55.2398 35.1114 55.2398 35.5586 55.0161C35.7823 55.0161 36.0059 55.2398 36.2296 55.4634C36.2296 55.687 36.2296 55.9107 36.0059 56.1343C35.5587 56.358 35.1114 56.358 34.6641 56.5816Z" fill="white"/>
<path d="M37.1249 37.5723C37.5722 38.0195 38.0195 38.4668 38.2431 38.9141C38.4668 39.3614 37.7958 39.585 37.5722 39.3614C37.1249 39.1378 36.9013 38.6905 36.454 38.4668C36.2303 38.2432 36.454 37.5723 37.1249 37.5723Z" fill="white"/>
<path d="M23.9297 41.3741C23.7061 41.1504 23.4824 41.1504 23.4824 40.9268C23.4824 40.7032 23.4824 40.4795 23.7061 40.2559C24.1533 40.0322 24.6006 39.8086 24.8243 39.8086C25.0479 39.8086 25.2716 40.0322 25.4952 40.2559C25.4952 40.4795 25.4952 40.7032 25.2716 40.9268C25.0479 40.9268 24.6006 41.1504 23.9297 41.3741Z" fill="white"/>
<path d="M41.1505 41.3741C40.7032 41.1505 40.2559 40.9268 39.8086 40.7032C39.585 40.7032 39.585 40.2559 39.585 40.0322C39.585 39.8086 40.0322 39.585 40.2559 39.585C40.7032 39.585 41.1505 39.8086 41.3741 40.0322C41.5977 40.0322 41.5977 40.4795 41.5977 40.7032C41.5977 41.1505 41.3741 41.1505 41.1505 41.3741Z" fill="white"/>
<path d="M29.0723 38.2432C28.4014 38.6905 27.9541 38.9141 27.5069 39.3614L27.0596 39.1378C27.0596 38.9141 27.0596 38.6905 27.0596 38.4668C27.2832 38.2432 27.7305 37.7959 27.9541 37.5723C28.1778 37.5723 28.4014 37.5723 28.4014 37.5723C28.6251 37.7959 28.8487 38.0196 29.0723 38.2432Z" fill="white"/>
<path d="M28.1797 22.5879C27.9561 22.3643 27.7324 22.3643 27.7324 22.1407C27.7324 21.917 27.9561 21.6934 28.1797 21.4697C28.4034 21.2461 28.8506 21.2461 29.0743 21.2461C29.2979 21.2461 29.5216 21.4697 29.7452 21.6934C29.5216 21.917 29.5216 22.1407 29.2979 22.3643C29.0743 22.3643 28.627 22.3643 28.1797 22.5879Z" fill="white"/>
<path d="M33.0987 40.0323C33.0987 40.2559 33.0987 40.2559 33.0987 40.4796C32.875 40.7032 32.6514 40.9268 32.4278 41.1505C32.2041 40.9268 31.9805 40.7032 31.9805 40.4796C31.9805 40.2559 31.9805 40.0323 31.9805 39.585C31.9805 39.1377 32.2041 38.9141 32.6514 38.9141C32.875 38.9141 33.0987 39.3613 33.0987 39.585C33.0987 39.585 33.0987 39.8086 33.0987 40.0323Z" fill="white"/>
<path d="M20.7989 40.7031C21.0225 40.7031 21.2462 40.7031 21.2462 40.7031C21.4698 40.9268 21.6935 40.9268 21.6935 41.1504C21.6935 41.3741 21.4698 41.5977 21.2462 41.5977C20.7989 41.5977 20.5752 41.8213 20.128 41.5977C19.9043 41.5977 19.6807 41.3741 19.457 41.1504C19.6807 40.9268 19.9043 40.7031 20.128 40.4795C20.3516 40.7031 20.5752 40.7031 20.7989 40.7031Z" fill="white"/>
<path d="M44.504 40.7031H44.7276C44.9512 40.9268 45.1749 41.1504 45.3985 41.1504C45.1749 41.3741 44.9512 41.5977 44.7276 41.5977C44.504 41.5977 44.0567 41.5977 43.833 41.5977C43.6094 41.5977 43.3858 41.1504 43.1621 40.9268C43.3858 40.7031 43.6094 40.4795 43.833 40.4795C44.0567 40.7031 44.2803 40.7031 44.504 40.7031Z" fill="white"/>
<path d="M40.9254 23.483C40.0309 23.483 39.1363 23.0357 39.36 22.5884C39.36 22.3648 39.8072 22.1411 39.8072 22.1411C40.4782 22.1411 41.3727 22.5884 41.3727 23.0357C41.1491 23.2593 40.9254 23.2593 40.9254 23.483Z" fill="white"/>
<path d="M48.9766 40.9268C48.5293 41.1504 48.3056 41.3741 47.8583 41.5977C47.6347 41.5977 47.4111 41.3741 47.1874 41.1504C46.9638 40.7031 47.6347 40.2559 48.3056 40.2559C48.5293 40.2559 48.7529 40.4795 48.9766 40.7031V40.9268Z" fill="white"/>
<path d="M17.8907 41.1504C17.667 41.1504 17.4434 41.3741 17.2198 41.3741C16.7725 41.3741 16.3252 41.1504 16.3252 40.7031C16.3252 40.4795 16.7725 40.2559 16.9961 40.2559C17.4434 40.2559 18.1143 40.7031 17.8907 41.1504Z" fill="white"/>
</g>
<defs>
<clipPath id="clip0_190_365">
<rect width="65.3035" height="70" fill="white"/>
</clipPath>
</defs>
</svg>
