<svg width="56" height="60" viewBox="0 0 56 60" fill="none" xmlns="http://www.w3.org/2000/svg">
<g clip-path="url(#clip0_189_359)">
<path d="M55.8907 18.2107C55.8907 21.6612 55.1251 24.5366 53.9766 27.0286C51.6798 31.8209 49.3829 36.6133 47.086 41.4056C45.3634 45.2395 43.8321 49.0733 41.9181 52.9072C41.1525 54.6325 40.004 56.3577 38.8556 57.8912C37.5158 59.6165 35.7931 60.1916 33.6877 59.9999C32.1564 59.8082 31.1994 59.0414 30.8166 57.5078C30.4338 56.166 30.0509 54.8241 30.0509 53.4823C29.8595 50.4152 29.8595 47.1564 29.6681 44.0893C29.6681 42.9392 29.4767 41.9807 29.2853 41.0222C29.2853 40.8305 29.0939 40.4471 29.0939 40.2555C28.9025 39.4887 28.5197 39.1053 27.7541 39.1053C26.9885 39.1053 26.6056 39.6804 26.6056 40.2555C26.4142 41.0222 26.2228 41.9807 26.2228 42.7475C26.0314 45.2395 26.0314 47.7315 26.0314 50.2235C25.84 52.3321 25.84 54.2491 25.4572 56.3577C25.0744 59.0414 23.3518 60.1916 20.6721 59.9999C19.1408 59.8082 17.801 59.0414 16.844 57.8912C15.6955 56.3577 14.7385 54.6325 13.7815 52.9072C12.2502 49.4567 10.719 46.0063 9.18775 42.5558C7.08229 37.9551 4.78542 33.1628 2.48856 28.5622C1.14872 25.8785 0.000283316 23.1947 -0.191122 20.3193C-0.382528 13.8018 1.53153 8.24267 6.31667 3.83373C11.4846 -0.958605 19.1408 -1.1503 25.0744 3.06695C25.84 3.45034 26.6056 3.83373 27.5627 3.83373C28.7111 3.83373 29.6681 3.64203 30.6252 2.87526C33.3048 0.958328 36.1759 -0.0001383 39.4298 -0.0001383C44.5978 -0.191832 48.8087 2.10849 51.8712 6.32574C54.5509 9.96791 55.6993 14.1852 55.8907 18.2107ZM41.5353 6.51743C40.9611 6.70913 40.5783 6.90082 40.1954 6.90082C34.2619 8.43437 28.7111 7.85929 23.5432 4.40881C18.3752 0.766635 11.8674 1.34171 7.4651 5.36727C3.25418 9.39283 1.72293 14.5686 2.10574 20.1277C2.29715 22.8114 3.25418 25.3034 4.40261 27.6037C7.84791 34.1213 10.719 40.8305 13.5901 47.5398C14.7385 50.0318 15.8869 52.5238 17.2268 54.8241C17.801 55.7826 18.5666 56.5494 19.3322 57.1245C21.0549 58.4663 22.9689 57.6995 23.3518 55.5909C23.7346 53.674 23.7346 51.9487 23.926 50.0318C24.1174 47.9232 23.926 45.6229 24.1174 43.5142C24.3088 41.9807 24.5002 40.4471 24.883 38.9136C25.2658 37.3801 26.4142 36.805 27.7541 36.805C29.2853 36.805 30.2424 37.3801 30.8166 38.9136C31.008 39.297 31.1994 39.6804 31.1994 40.0638C31.3908 42.1724 31.7736 44.281 31.7736 46.1979C31.965 48.4983 31.7736 50.9903 31.965 53.2906C31.965 54.2491 32.1564 55.3992 32.5392 56.3577C32.922 57.5078 33.4963 57.8912 34.6447 57.8912C35.9845 57.8912 36.7501 57.3162 37.5158 56.3577C39.047 54.4408 40.004 52.3321 40.9611 50.0318C43.0665 45.4312 44.9806 40.6388 47.086 36.0382C48.6173 32.7794 50.3399 29.5206 51.8712 26.2618C54.5509 20.7027 54.168 14.9519 51.297 9.58453C48.2345 3.64203 42.4923 0.958328 36.5587 2.30018C34.4533 2.87526 32.5392 3.83373 30.8166 5.36727C32.5392 5.75066 34.2619 5.75066 35.9845 5.55897C37.7072 5.36727 39.2384 4.98389 40.9611 4.6005C41.1525 5.17558 41.3439 5.75066 41.5353 6.51743Z" fill="white"/>
<path d="M16.8437 4.02539C16.8437 4.79216 16.8437 5.36724 16.8437 5.94232C15.8867 6.13402 14.7382 6.32571 13.7812 6.7091C9.7617 8.24264 7.65624 11.3097 6.5078 15.1436C6.12499 16.2938 5.93359 17.6356 5.74218 18.9775C5.16796 18.9775 4.59375 18.9775 3.82812 18.7858C4.01953 17.4439 4.21094 16.1021 4.59375 14.7602C5.35937 11.6931 6.69921 9.00942 9.18748 6.90079C11.2929 5.17555 13.9726 4.21708 16.8437 4.02539Z" fill="white"/>
<path d="M44.9805 30.4791C47.2773 27.0287 49.1914 23.3865 49.7656 18.9775C50.1484 18.9775 50.3398 18.9775 50.7226 18.9775C51.1054 18.9775 51.2969 18.9775 51.6797 18.9775C51.2969 23.7699 49.1914 27.7954 46.5117 31.6293C46.1289 31.2459 45.5547 30.8625 44.9805 30.4791Z" fill="white"/>
<path d="M4.01953 21.0859C4.59375 21.0859 5.35937 21.0859 5.93359 21.0859C5.93359 21.661 5.93359 22.4278 5.93359 23.0029C5.35937 23.0029 4.78515 23.0029 4.01953 23.0029C4.01953 22.2361 4.01953 21.661 4.01953 21.0859Z" fill="white"/>
</g>
<defs>
<clipPath id="clip0_189_359">
<rect width="55.8904" height="60" fill="white"/>
</clipPath>
</defs>
</svg>
