<svg width="25" height="25" viewBox="0 0 25 25" fill="none" xmlns="http://www.w3.org/2000/svg">
<mask id="mask0_273_63731" style="mask-type:alpha" maskUnits="userSpaceOnUse" x="0" y="0" width="25" height="25">
<circle cx="12.5" cy="12.5" r="12.5" fill="#D9D9D9"/>
</mask>
<g mask="url(#mask0_273_63731)">
<path d="M42.5 0H-5V25H42.5V0Z" fill="#B22234"/>
<path d="M-5 2.88477H42.5H-5ZM42.5 6.73092H-5H42.5ZM-5 10.5771H42.5H-5ZM42.5 14.4232H-5H42.5ZM-5 18.2694H42.5H-5ZM42.5 22.1155H-5H42.5Z" fill="black"/>
<path d="M-5 2.88477H42.5M42.5 6.73092H-5M-5 10.5771H42.5M42.5 14.4232H-5M-5 18.2694H42.5M42.5 22.1155H-5" stroke="white" stroke-width="1.92308"/>
<path d="M14 0H-5V13.4615H14V0Z" fill="#3C3B6E"/>
<path d="M-0.249863 0.576904L0.202279 1.96846L-0.981445 1.10843H0.481718L-0.702006 1.96846L-0.249863 0.576904Z" fill="white"/>
<path d="M-0.249863 3.26929L0.202279 4.66084L-0.981445 3.80081H0.481718L-0.702006 4.66084L-0.249863 3.26929Z" fill="white"/>
<path d="M-0.249863 5.96143L0.202279 7.35298L-0.981445 6.49295H0.481718L-0.702006 7.35298L-0.249863 5.96143Z" fill="white"/>
<path d="M-0.249863 8.65381L0.202279 10.0454L-0.981445 9.18533H0.481718L-0.702006 10.0454L-0.249863 8.65381Z" fill="white"/>
<path d="M-0.249863 11.3462L0.202279 12.7377L-0.981445 11.8777H0.481718L-0.702006 12.7377L-0.249863 11.3462Z" fill="white"/>
<path d="M1.33314 1.92297L1.78529 3.31453L0.601562 2.4545H2.06473L0.881002 3.31453L1.33314 1.92297Z" fill="white"/>
<path d="M1.33314 4.61511L1.78529 6.00666L0.601562 5.14664H2.06473L0.881002 6.00666L1.33314 4.61511Z" fill="white"/>
<path d="M1.33314 7.30737L1.78529 8.69892L0.601562 7.8389H2.06473L0.881002 8.69892L1.33314 7.30737Z" fill="white"/>
<path d="M1.33314 9.99976L1.78529 11.3913L0.601562 10.5313H2.06473L0.881002 11.3913L1.33314 9.99976Z" fill="white"/>
<path d="M2.91713 0.576904L3.36927 1.96846L2.18555 1.10843H3.64871L2.46499 1.96846L2.91713 0.576904Z" fill="white"/>
<path d="M2.91713 3.26929L3.36927 4.66084L2.18555 3.80081H3.64871L2.46499 4.66084L2.91713 3.26929Z" fill="white"/>
<path d="M2.91713 5.96143L3.36927 7.35298L2.18555 6.49295H3.64871L2.46499 7.35298L2.91713 5.96143Z" fill="white"/>
<path d="M2.91713 8.65381L3.36927 10.0454L2.18555 9.18533H3.64871L2.46499 10.0454L2.91713 8.65381Z" fill="white"/>
<path d="M2.91713 11.3462L3.36927 12.7377L2.18555 11.8777H3.64871L2.46499 12.7377L2.91713 11.3462Z" fill="white"/>
<path d="M4.50111 1.92297L4.95326 3.31453L3.76953 2.4545H5.23269L4.04897 3.31453L4.50111 1.92297Z" fill="white"/>
<path d="M4.50111 4.61511L4.95326 6.00666L3.76953 5.14664H5.23269L4.04897 6.00666L4.50111 4.61511Z" fill="white"/>
<path d="M4.50111 7.30737L4.95326 8.69892L3.76953 7.8389H5.23269L4.04897 8.69892L4.50111 7.30737Z" fill="white"/>
<path d="M4.50111 9.99976L4.95326 11.3913L3.76953 10.5313H5.23269L4.04897 11.3913L4.50111 9.99976Z" fill="white"/>
<path d="M6.08412 0.576904L6.53626 1.96846L5.35254 1.10843H6.8157L5.63198 1.96846L6.08412 0.576904Z" fill="white"/>
<path d="M6.08412 3.26929L6.53626 4.66084L5.35254 3.80081H6.8157L5.63198 4.66084L6.08412 3.26929Z" fill="white"/>
<path d="M6.08412 5.96143L6.53626 7.35298L5.35254 6.49295H6.8157L5.63198 7.35298L6.08412 5.96143Z" fill="white"/>
<path d="M6.08412 8.65381L6.53626 10.0454L5.35254 9.18533H6.8157L5.63198 10.0454L6.08412 8.65381Z" fill="white"/>
<path d="M6.08412 11.3462L6.53626 12.7377L5.35254 11.8777H6.8157L5.63198 12.7377L6.08412 11.3462Z" fill="white"/>
<path d="M7.66713 1.92297L8.11927 3.31453L6.93555 2.4545H8.39871L7.21499 3.31453L7.66713 1.92297Z" fill="white"/>
<path d="M7.66713 4.61511L8.11927 6.00666L6.93555 5.14664H8.39871L7.21499 6.00666L7.66713 4.61511Z" fill="white"/>
<path d="M7.66713 7.30737L8.11927 8.69892L6.93555 7.8389H8.39871L7.21499 8.69892L7.66713 7.30737Z" fill="white"/>
<path d="M7.66713 9.99976L8.11927 11.3913L6.93555 10.5313H8.39871L7.21499 11.3913L7.66713 9.99976Z" fill="white"/>
<path d="M9.25014 0.576904L9.70228 1.96846L8.51855 1.10843H9.98172L8.79799 1.96846L9.25014 0.576904Z" fill="white"/>
<path d="M9.25014 3.26929L9.70228 4.66084L8.51855 3.80081H9.98172L8.79799 4.66084L9.25014 3.26929Z" fill="white"/>
<path d="M9.25014 5.96143L9.70228 7.35298L8.51855 6.49295H9.98172L8.79799 7.35298L9.25014 5.96143Z" fill="white"/>
<path d="M9.25014 8.65381L9.70228 10.0454L8.51855 9.18533H9.98172L8.79799 10.0454L9.25014 8.65381Z" fill="white"/>
<path d="M9.25014 11.3462L9.70228 12.7377L8.51855 11.8777H9.98172L8.79799 12.7377L9.25014 11.3462Z" fill="white"/>
<path d="M10.8331 1.92297L11.2853 3.31453L10.1016 2.4545H11.5647L10.381 3.31453L10.8331 1.92297Z" fill="white"/>
<path d="M10.8331 4.61511L11.2853 6.00666L10.1016 5.14664H11.5647L10.381 6.00666L10.8331 4.61511Z" fill="white"/>
<path d="M10.8331 7.30737L11.2853 8.69892L10.1016 7.8389H11.5647L10.381 8.69892L10.8331 7.30737Z" fill="white"/>
<path d="M10.8331 9.99976L11.2853 11.3913L10.1016 10.5313H11.5647L10.381 11.3913L10.8331 9.99976Z" fill="white"/>
<path d="M12.4162 0.576904L12.8683 1.96846L11.6846 1.10843H13.1477L11.964 1.96846L12.4162 0.576904Z" fill="white"/>
<path d="M12.4162 3.26929L12.8683 4.66084L11.6846 3.80081H13.1477L11.964 4.66084L12.4162 3.26929Z" fill="white"/>
<path d="M12.4162 5.96143L12.8683 7.35298L11.6846 6.49295H13.1477L11.964 7.35298L12.4162 5.96143Z" fill="white"/>
<path d="M12.4162 8.65381L12.8683 10.0454L11.6846 9.18533H13.1477L11.964 10.0454L12.4162 8.65381Z" fill="white"/>
<path d="M12.4162 11.3462L12.8683 12.7377L11.6846 11.8777H13.1477L11.964 12.7377L12.4162 11.3462Z" fill="white"/>
</g>
</svg>
