<svg width="19" height="19" viewBox="0 0 19 19" fill="none" xmlns="http://www.w3.org/2000/svg">
<path d="M8.85586 13.75C8.85586 14.2194 9.23642 14.6 9.70586 14.6C10.1753 14.6 10.5559 14.2194 10.5559 13.75H8.85586ZM8.85586 7.8C8.38642 7.8 8.00586 8.18056 8.00586 8.65C8.00586 9.11944 8.38642 9.5 8.85586 9.5V7.8ZM9.58138 8.77448L10.1824 8.17344V8.17344L9.58138 8.77448ZM9.49237 5.25C9.02292 5.25 8.64237 5.63056 8.64237 6.1C8.64237 6.56944 9.02292 6.95 9.49237 6.95V5.25ZM9.5 6.95C9.96944 6.95 10.35 6.56944 10.35 6.1C10.35 5.63056 9.96944 5.25 9.5 5.25V6.95ZM18.85 9.5C18.85 4.33614 14.6639 0.15 9.5 0.15V1.85C13.725 1.85 17.15 5.27502 17.15 9.5H18.85ZM9.5 0.15C4.33614 0.15 0.15 4.33614 0.15 9.5H1.85C1.85 5.27502 5.27502 1.85 9.5 1.85V0.15ZM0.15 9.5C0.15 14.6639 4.33614 18.85 9.5 18.85V17.15C5.27502 17.15 1.85 13.725 1.85 9.5H0.15ZM9.5 18.85C14.6639 18.85 18.85 14.6639 18.85 9.5H17.15C17.15 13.725 13.725 17.15 9.5 17.15V18.85ZM8.85586 9.5V13.75H10.5559V9.5H8.85586ZM8.85586 9.5C8.95919 9.5 9.03517 9.50006 9.09932 9.50167C9.16389 9.5033 9.19541 9.50616 9.20894 9.50798C9.22193 9.50973 9.19468 9.50761 9.14845 9.48859C9.09543 9.46678 9.03474 9.42992 8.98034 9.37552L10.1824 8.17344C9.93593 7.92694 9.64545 7.85137 9.43546 7.82314C9.24992 7.79819 9.03218 7.8 8.85586 7.8V9.5ZM10.5559 9.5C10.5559 9.32368 10.5577 9.10594 10.5327 8.9204C10.5045 8.71041 10.4289 8.41993 10.1824 8.17344L8.98034 9.37552C8.92594 9.32112 8.88908 9.26043 8.86727 9.20741C8.84825 9.16118 8.84613 9.13393 8.84788 9.14692C8.8497 9.16045 8.85256 9.19197 8.85419 9.25654C8.8558 9.32069 8.85586 9.39667 8.85586 9.5H10.5559ZM9.49237 6.95H9.5V5.25H9.49237V6.95Z" fill="#2A353D"/>
</svg>
