<svg width="20" height="20" viewBox="0 0 20 20" fill="none" xmlns="http://www.w3.org/2000/svg">
<path d="M6.64784 10.4409C6.3289 10.259 5.92289 10.3701 5.74099 10.6891C5.55909 11.008 5.67018 11.414 5.98912 11.5959L6.64784 10.4409ZM8.44587 13.0129L7.87533 13.3541C8.0021 13.5661 8.23591 13.6903 8.4825 13.6767C8.72909 13.6631 8.94782 13.5139 9.05049 13.2893L8.44587 13.0129ZM13.7288 7.39126C14.0509 7.21509 14.1692 6.81113 13.9931 6.48899C13.8169 6.16686 13.4129 6.04852 13.0908 6.22469L13.7288 7.39126ZM19.3931 10.3536C19.3931 5.09094 15.1268 0.824692 9.86413 0.824692V2.15431C14.3925 2.15431 18.0634 5.82527 18.0634 10.3536H19.3931ZM9.86413 0.824692C4.60144 0.824692 0.33519 5.09094 0.33519 10.3536H1.66481C1.66481 5.82527 5.33577 2.15431 9.86413 2.15431V0.824692ZM0.33519 10.3536C0.33519 15.6163 4.60144 19.8826 9.86413 19.8826V18.5529C5.33577 18.5529 1.66481 14.882 1.66481 10.3536H0.33519ZM9.86413 19.8826C15.1268 19.8826 19.3931 15.6163 19.3931 10.3536H18.0634C18.0634 14.882 14.3925 18.5529 9.86413 18.5529V19.8826ZM6.31848 11.0184C5.98912 11.5959 5.98901 11.5959 5.9889 11.5958C5.98887 11.5958 5.98877 11.5957 5.98871 11.5957C5.9886 11.5956 5.98851 11.5956 5.98843 11.5955C5.98829 11.5955 5.98823 11.5954 5.98826 11.5954C5.9883 11.5955 5.98869 11.5957 5.98939 11.5961C5.9908 11.5969 5.9935 11.5985 5.99744 11.6008C6.00532 11.6054 6.01811 11.613 6.0353 11.6235C6.0697 11.6444 6.12158 11.6767 6.18687 11.7195C6.31782 11.8052 6.50073 11.9319 6.70393 12.0926C7.11892 12.4207 7.58012 12.8606 7.87533 13.3541L9.0164 12.6716C8.60248 11.9796 7.99999 11.4223 7.52857 11.0496C7.28856 10.8598 7.07258 10.7102 6.91545 10.6072C6.8367 10.5556 6.77223 10.5155 6.72631 10.4875C6.70333 10.4736 6.68496 10.4626 6.67171 10.4548C6.66509 10.4509 6.65974 10.4478 6.65574 10.4455C6.65374 10.4443 6.65208 10.4434 6.65076 10.4426C6.6501 10.4422 6.64952 10.4419 6.64904 10.4416C6.64879 10.4415 6.64857 10.4414 6.64837 10.4413C6.64827 10.4412 6.64814 10.4411 6.64809 10.4411C6.64796 10.441 6.64784 10.4409 6.31848 11.0184ZM8.44587 13.0129C9.05049 13.2893 9.05045 13.2894 9.05042 13.2894C9.05042 13.2894 9.05039 13.2895 9.05039 13.2895C9.05038 13.2895 9.05041 13.2895 9.05047 13.2893C9.05059 13.2891 9.05084 13.2885 9.05122 13.2877C9.05197 13.2861 9.05323 13.2833 9.055 13.2795C9.05853 13.2719 9.06408 13.26 9.07161 13.2441C9.08665 13.2122 9.10958 13.1642 9.14004 13.1019C9.20098 12.9773 9.29195 12.7959 9.41016 12.5725C9.64695 12.1252 9.99127 11.5133 10.4208 10.8556C11.2961 9.51531 12.4625 8.08374 13.7288 7.39126L13.0908 6.22469C11.5205 7.08344 10.205 8.75432 9.3075 10.1286C8.85058 10.8283 8.48576 11.4768 8.23502 11.9505C8.10948 12.1877 8.01208 12.3819 7.9456 12.5178C7.91235 12.5858 7.8868 12.6393 7.8693 12.6764C7.86054 12.6949 7.8538 12.7093 7.84911 12.7194C7.84677 12.7245 7.84494 12.7284 7.84362 12.7313C7.84296 12.7327 7.84244 12.7339 7.84204 12.7347C7.84184 12.7352 7.84168 12.7355 7.84154 12.7358C7.84148 12.736 7.8414 12.7361 7.84137 12.7362C7.8413 12.7363 7.84124 12.7365 8.44587 13.0129Z" fill="#BCBCBC"/>
</svg>
