<svg width="24" height="24" viewBox="0 0 24 24" fill="none" xmlns="http://www.w3.org/2000/svg">
<path d="M0.0889893 1.72957C0.0889893 0.785751 0.879144 0.0196533 1.85318 0.0196533H22.1954C23.1698 0.0196533 23.9596 0.785751 23.9596 1.72957V22.1806C23.9596 23.1247 23.1698 23.8903 22.1954 23.8903H1.85318C0.879237 23.8903 0.0889893 23.1248 0.0889893 22.1809V1.72957Z" fill="#006699"/>
<path d="M7.34283 19.9963V9.24965H3.77081V19.9963H7.34283ZM5.55757 7.78263C6.80294 7.78263 7.57827 6.95742 7.57827 5.92614C7.55496 4.87135 6.80294 4.06917 5.58125 4.06917C4.35872 4.06917 3.56027 4.87135 3.56027 5.92604C3.56027 6.95733 4.33532 7.78254 5.53416 7.78254L5.55757 7.78263ZM9.31999 19.9963H12.8917V13.9955C12.8917 13.6748 12.915 13.3532 13.0094 13.1241C13.2675 12.4821 13.8552 11.8175 14.8422 11.8175C16.1344 11.8175 16.6516 12.8029 16.6516 14.2478V19.9963H20.2233V13.8345C20.2233 10.5337 18.4613 8.99771 16.1113 8.99771C14.1846 8.99771 13.3384 10.0746 12.8682 10.8081H12.892V9.25003H9.32018C9.3668 10.2582 9.31999 19.9963 9.31999 19.9963Z" fill="white"/>
</svg>
