<svg width="27" height="16" viewBox="0 0 27 16" fill="none" xmlns="http://www.w3.org/2000/svg">
<path fill-rule="evenodd" clip-rule="evenodd" d="M25.8243 1.24633C26.008 0.669337 25.8243 0.245361 24.9499 0.245361H22.0583C21.3231 0.245361 20.9842 0.611614 20.8003 1.01548C20.8003 1.01548 19.3299 4.39084 17.2468 6.58335C16.5729 7.21801 16.2665 7.41995 15.8989 7.41995C15.7151 7.41995 15.4491 7.21801 15.4491 6.64107V1.24633C15.4491 0.553941 15.2357 0.245361 14.6229 0.245361H10.0791C9.61965 0.245361 9.34333 0.566715 9.34333 0.871273C9.34333 1.52764 10.3848 1.67901 10.4922 3.52538V7.53539C10.4922 8.41457 10.3236 8.57397 9.95596 8.57397C8.97572 8.57397 6.59126 5.18354 5.17706 1.304C4.89991 0.549956 4.62193 0.245361 3.88294 0.245361H0.991394C0.165239 0.245361 0 0.611614 0 1.01548C0 1.73673 0.980297 5.31402 4.56443 10.0452C6.95383 13.2763 10.3203 15.0277 13.3837 15.0277C15.2217 15.0277 15.4491 14.6387 15.4491 13.9687V11.5267C15.4491 10.7486 15.6232 10.5934 16.2053 10.5934C16.6341 10.5934 17.3693 10.7953 19.0849 12.3531C21.0454 14.1995 21.3686 15.0277 22.4714 15.0277H25.363C26.1891 15.0277 26.6022 14.6387 26.3639 13.871C26.1031 13.1059 25.1671 11.9958 23.925 10.6799C23.251 9.92984 22.2401 9.1221 21.9338 8.71814C21.5049 8.19892 21.6275 7.96807 21.9338 7.50653C21.9338 7.50653 25.4567 2.83299 25.8243 1.24633Z" fill="#2787F5"/>
</svg>
