<svg width="24" height="21" viewBox="0 0 24 21" fill="none" xmlns="http://www.w3.org/2000/svg">
<path d="M1.29283 12.0113C0.998643 10.0969 0.851551 9.13978 1.21347 8.29123C1.57539 7.44268 2.37835 6.86211 3.98428 5.70097L5.18416 4.83341C7.18191 3.38897 8.18078 2.66675 9.33333 2.66675C10.4859 2.66675 11.4848 3.38897 13.4825 4.83341L14.6824 5.70097C16.2883 6.86211 17.0913 7.44268 17.4532 8.29123C17.8151 9.13978 17.668 10.0969 17.3738 12.0113L17.123 13.6437C16.7059 16.3575 16.4974 17.7144 15.5242 18.5239C14.5509 19.3334 13.1281 19.3334 10.2823 19.3334H8.38432C5.53861 19.3334 4.11576 19.3334 3.1425 18.5239C2.16924 17.7144 1.96072 16.3575 1.54369 13.6437L1.29283 12.0113Z" stroke="#2A353D" stroke-width="1.5" stroke-linejoin="round"/>
<path d="M23.239 0.284053C22.4344 -0.185941 21.7322 0.00346114 21.3104 0.305158C21.1375 0.42886 21.051 0.490711 21.0001 0.490711C20.9492 0.490711 20.8627 0.42886 20.6898 0.305158C20.268 0.00346114 19.5658 -0.185941 18.7613 0.284053C17.7054 0.90087 17.4665 2.93577 19.9019 4.65255C20.3658 4.97954 20.5977 5.14304 21.0001 5.14304C21.4025 5.14304 21.6344 4.97954 22.0983 4.65255C24.5337 2.93577 24.2948 0.90087 23.239 0.284053Z" fill="#5282FF"/>
<path d="M6.524 12.156C6.348 12.156 6.196 12.096 6.068 11.976C5.948 11.848 5.888 11.696 5.888 11.52C5.888 11.344 5.948 11.196 6.068 11.076C6.196 10.948 6.348 10.884 6.524 10.884H8.624C8.688 10.884 8.72 10.848 8.72 10.776V8.724C8.72 8.54 8.788 8.38 8.924 8.244C9.06 8.108 9.22 8.04 9.404 8.04C9.588 8.04 9.748 8.108 9.884 8.244C10.02 8.38 10.088 8.54 10.088 8.724V10.776C10.088 10.848 10.12 10.884 10.184 10.884H12.284C12.46 10.884 12.608 10.948 12.728 11.076C12.856 11.196 12.92 11.344 12.92 11.52C12.92 11.696 12.856 11.848 12.728 11.976C12.608 12.096 12.46 12.156 12.284 12.156H10.184C10.12 12.156 10.088 12.192 10.088 12.264V14.316C10.088 14.5 10.02 14.66 9.884 14.796C9.748 14.932 9.588 15 9.404 15C9.22 15 9.06 14.932 8.924 14.796C8.788 14.66 8.72 14.5 8.72 14.316V12.264C8.72 12.192 8.688 12.156 8.624 12.156H6.524Z" fill="#2A353D"/>
</svg>
