<svg width="22" height="22" viewBox="0 0 22 22" fill="none" xmlns="http://www.w3.org/2000/svg">
<path d="M7.37156 11.0985C7.01176 10.8933 6.55372 11.0186 6.34851 11.3784C6.1433 11.7382 6.26863 12.1963 6.62844 12.4015L7.37156 11.0985ZM9.4 14L8.75635 14.385C8.89937 14.6241 9.16314 14.7642 9.44133 14.7489C9.71952 14.7335 9.96627 14.5652 10.0821 14.3118L9.4 14ZM15.3599 7.65803C15.7233 7.45928 15.8568 7.00356 15.658 6.64014C15.4593 6.27672 15.0036 6.14323 14.6401 6.34197L15.3599 7.65803ZM21.75 11C21.75 5.06294 16.9371 0.25 11 0.25V1.75C16.1086 1.75 20.25 5.89137 20.25 11H21.75ZM11 0.25C5.06294 0.25 0.25 5.06294 0.25 11H1.75C1.75 5.89137 5.89137 1.75 11 1.75V0.25ZM0.25 11C0.25 16.9371 5.06294 21.75 11 21.75V20.25C5.89137 20.25 1.75 16.1086 1.75 11H0.25ZM11 21.75C16.9371 21.75 21.75 16.9371 21.75 11H20.25C20.25 16.1086 16.1086 20.25 11 20.25V21.75ZM7 11.75C6.62844 12.4015 6.62831 12.4014 6.62819 12.4014C6.62816 12.4013 6.62804 12.4013 6.62798 12.4012C6.62785 12.4012 6.62775 12.4011 6.62767 12.4011C6.6275 12.401 6.62744 12.4009 6.62746 12.4009C6.62752 12.401 6.62795 12.4012 6.62874 12.4017C6.63033 12.4026 6.63339 12.4044 6.63783 12.407C6.64671 12.4122 6.66114 12.4208 6.68053 12.4326C6.71935 12.4562 6.77787 12.4926 6.85153 12.5409C6.99926 12.6376 7.2056 12.7805 7.43485 12.9618C7.90302 13.3319 8.42332 13.8282 8.75635 14.385L10.0436 13.615C9.57668 12.8343 8.89698 12.2056 8.36515 11.7851C8.0944 11.571 7.85074 11.4022 7.67347 11.2861C7.58463 11.2279 7.5119 11.1826 7.46009 11.1511C7.43417 11.1353 7.41344 11.123 7.3985 11.1142C7.39103 11.1098 7.385 11.1063 7.38049 11.1036C7.37823 11.1023 7.37635 11.1013 7.37486 11.1004C7.37412 11.1 7.37347 11.0996 7.37292 11.0993C7.37264 11.0991 7.37239 11.099 7.37217 11.0989C7.37205 11.0988 7.3719 11.0987 7.37185 11.0987C7.3717 11.0986 7.37156 11.0985 7 11.75ZM9.4 14C10.0821 14.3118 10.0821 14.3119 10.082 14.312C10.082 14.312 10.082 14.3121 10.082 14.3121C10.082 14.3121 10.082 14.312 10.0821 14.3119C10.0822 14.3116 10.0825 14.311 10.0829 14.31C10.0838 14.3082 10.0852 14.3051 10.0872 14.3008C10.0912 14.2922 10.0974 14.2788 10.1059 14.2609C10.1229 14.2249 10.1488 14.1707 10.1831 14.1005C10.2519 13.9599 10.3545 13.7552 10.4879 13.5032C10.755 12.9986 11.1434 12.3083 11.628 11.5663C12.6154 10.0543 13.9313 8.43925 15.3599 7.65803L14.6401 6.34197C12.8687 7.31075 11.3846 9.19575 10.372 10.7462C9.85657 11.5355 9.44501 12.2671 9.16213 12.8015C9.0205 13.069 8.91063 13.2881 8.83563 13.4415C8.79811 13.5182 8.76929 13.5786 8.74955 13.6204C8.73967 13.6413 8.73207 13.6576 8.72678 13.6689C8.72413 13.6746 8.72206 13.6791 8.72058 13.6823C8.71984 13.6839 8.71924 13.6852 8.7188 13.6862C8.71857 13.6867 8.71839 13.6871 8.71823 13.6874C8.71816 13.6876 8.71807 13.6878 8.71804 13.6879C8.71796 13.688 8.71789 13.6882 9.4 14Z" fill="#5282FF"/>
</svg>
