<svg width="82" height="81" viewBox="0 0 82 81" fill="none" xmlns="http://www.w3.org/2000/svg">
<path d="M43.5922 54.6201C44.9851 55.3736 46.0584 55.9673 47.3143 56.6752C47.4513 55.4878 47.6111 54.5059 46.9261 53.5469C45.6473 51.7886 44.3914 50.0304 43.1812 48.2264C42.9529 47.8839 42.7474 47.4044 42.7702 46.9934C42.9072 43.7966 43.0899 40.6226 43.2497 37.4257C43.2497 37.2431 43.3411 37.0832 43.4096 36.7179C47.5198 38.8871 51.5158 40.9879 55.7402 43.2029C55.7402 42.0611 55.763 41.1249 55.7174 40.2115C55.7174 40.006 55.4662 39.7777 55.2835 39.6178C54.1874 38.7501 53.0229 37.9281 51.9725 37.0147C51.63 36.7179 51.4473 36.1698 51.2646 35.7131C51.0591 35.2565 51.0591 34.5714 50.7394 34.3887C50.4654 34.2289 49.8717 34.6399 49.278 34.8454C48.2733 34.2517 47.2458 33.4982 47.5198 31.8541C47.5654 31.5801 47.1544 31.2148 46.9489 30.8951C46.5151 31.1691 46.0812 31.4431 45.5103 31.8313C44.2544 30.9636 42.9072 30.0502 42.8844 27.7896C42.8615 25.2778 42.245 22.7432 41.8111 20.2314C41.697 19.5692 41.3088 18.9526 41.0348 18.2904C40.8749 18.2904 40.7379 18.2904 40.5781 18.2904C40.3269 19.0896 39.9616 19.866 39.8245 20.6652C39.4592 23.177 39.1167 25.7116 38.9112 28.2463C38.8198 29.3652 38.523 30.1872 37.5639 30.8266C36.9246 31.2376 36.3994 31.7856 35.7372 32.3108C35.6687 32.0825 35.6458 31.8998 35.5545 31.8313C35.2805 31.5801 34.9836 31.3746 34.6868 31.1234C34.4813 31.4203 34.0474 31.7399 34.0703 32.014C34.1844 33.3384 33.8419 34.3431 32.5175 34.8683C31.1246 34.1376 30.9191 34.2746 30.7364 35.8958C30.6907 36.2612 30.4396 36.6722 30.1656 36.9234C29.0467 37.9053 27.8821 38.8186 26.7404 39.7777C26.5349 39.9604 26.3065 40.2344 26.3065 40.4856C26.2609 41.3761 26.2837 42.2895 26.2837 43.454C30.3939 41.1706 34.3443 38.9785 38.4088 36.695C38.4545 37.1746 38.5001 37.4942 38.523 37.8139C38.7057 40.7367 38.9112 43.6595 39.0253 46.5824C39.0482 47.1989 38.8883 47.9296 38.5458 48.4776C37.5868 50.076 36.5592 51.6516 35.4403 53.1359C34.6183 54.2091 34.5498 55.3508 34.7781 56.8351C35.9427 56.15 36.9931 55.5563 38.3175 54.7799C38.0663 55.7847 37.9064 56.5382 37.7009 57.2689C35.9198 63.5484 33.7277 69.668 29.7545 74.9656C29.0923 75.8334 28.3388 76.6554 27.5853 77.4546C25.9183 79.2585 23.7947 80.1034 21.3743 80.1034C15.6656 80.1262 9.95703 80.1491 4.2484 80.1034C0.754725 80.0806 -1.00353 76.9751 0.594884 73.8467C9.61451 56.2414 18.6341 38.6588 27.6538 21.0534C30.8049 14.9338 33.9561 8.81411 37.0844 2.67164C37.9064 1.05039 39.0938 0 40.9891 0C42.9072 0 44.0946 1.07322 44.9395 2.76297C49.3237 11.3944 53.7993 20.003 58.2291 28.6345C65.9472 43.6596 73.6424 58.6846 81.3377 73.7097C83.0731 77.1121 81.2691 80.0806 77.433 80.1034C72.455 80.1262 67.4543 79.9207 62.4764 80.1719C57.9551 80.4003 54.7811 78.5278 52.2237 75.0113C48.5017 69.9192 46.2867 64.1649 44.5513 58.1823C44.2316 57.1091 43.9576 56.013 43.5922 54.6201Z" fill="#5282FF"/>
</svg>
