<svg width="16" height="15" viewBox="0 0 16 15" fill="none" xmlns="http://www.w3.org/2000/svg">
<path d="M8.81654 1.08313L10.1395 3.74466C10.3199 4.11515 10.801 4.47053 11.2069 4.53858L13.6048 4.93932C15.1383 5.1964 15.4991 6.31544 14.3941 7.41937L12.5299 9.29454C12.2142 9.6121 12.0413 10.2246 12.139 10.6631L12.6727 12.9844C13.0937 14.8217 12.124 15.5325 10.5079 14.5722L8.26029 13.2339C7.85438 12.9919 7.18537 12.9919 6.77194 13.2339L4.52438 14.5722C2.91576 15.5325 1.93856 14.8142 2.35951 12.9844L2.89321 10.6631C2.99093 10.2246 2.81804 9.6121 2.50233 9.29454L0.638136 7.41937C-0.459335 6.31544 -0.106039 5.1964 1.42741 4.93932L3.82531 4.53858C4.22371 4.47053 4.70479 4.11515 4.8852 3.74466L6.20817 1.08313C6.9298 -0.361045 8.10244 -0.361045 8.81654 1.08313Z" fill="#FFC224"/>
</svg>
