<svg width="86" height="14" viewBox="0 0 86 14" fill="none" xmlns="http://www.w3.org/2000/svg">
<path d="M7.86505 0.96624L9.04525 3.34053C9.20619 3.67104 9.63535 3.98806 9.99745 4.04877L12.1366 4.40626C13.5045 4.63559 13.8264 5.63387 12.8407 6.61866L11.1777 8.29145C10.896 8.57475 10.7418 9.1211 10.829 9.51232L11.3051 11.5831C11.6806 13.2221 10.8155 13.8562 9.37383 12.9996L7.36883 11.8057C7.00672 11.5898 6.40992 11.5898 6.0411 11.8057L4.0361 12.9996C2.60109 13.8562 1.72935 13.2154 2.10487 11.5831L2.58097 9.51232C2.66815 9.1211 2.51391 8.57475 2.23228 8.29145L0.569267 6.61866C-0.409763 5.63387 -0.0945951 4.63559 1.27336 4.40626L3.41248 4.04877C3.76788 3.98806 4.19704 3.67104 4.35798 3.34053L5.53818 0.96624C6.18192 -0.32208 7.22801 -0.32208 7.86505 0.96624Z" fill="#FFC224"/>
<path d="M26.0125 0.96624L27.1927 3.34053C27.3536 3.67104 27.7828 3.98806 28.1449 4.04877L30.284 4.40626C31.652 4.63559 31.9739 5.63387 30.9881 6.61866L29.3251 8.29145C29.0435 8.57475 28.8892 9.1211 28.9764 9.51232L29.4525 11.5831C29.828 13.2221 28.963 13.8562 27.5213 12.9996L25.5163 11.8057C25.1542 11.5898 24.5574 11.5898 24.1886 11.8057L22.1836 12.9996C20.7485 13.8562 19.8768 13.2154 20.2523 11.5831L20.7284 9.51232C20.8156 9.1211 20.6614 8.57475 20.3797 8.29145L18.7167 6.61866C17.7377 5.63387 18.0529 4.63559 19.4208 4.40626L21.5599 4.04877C21.9153 3.98806 22.3445 3.67104 22.5054 3.34053L23.6856 0.96624C24.3294 -0.32208 25.3755 -0.32208 26.0125 0.96624Z" fill="#FFC224"/>
<path d="M44.159 0.96624L45.3392 3.34053C45.5001 3.67104 45.9293 3.98806 46.2914 4.04877L48.4305 4.40626C49.7985 4.63559 50.1203 5.63387 49.1346 6.61866L47.4716 8.29145C47.19 8.57475 47.0357 9.1211 47.1229 9.51232L47.599 11.5831C47.9745 13.2221 47.1095 13.8562 45.6678 12.9996L43.6628 11.8057C43.3007 11.5898 42.7039 11.5898 42.335 11.8057L40.33 12.9996C38.895 13.8562 38.0233 13.2154 38.3988 11.5831L38.8749 9.51232C38.9621 9.1211 38.8079 8.57475 38.5262 8.29145L36.8632 6.61866C35.8842 5.63387 36.1994 4.63559 37.5673 4.40626L39.7064 4.04877C40.0618 3.98806 40.491 3.67104 40.6519 3.34053L41.8321 0.96624C42.4759 -0.32208 43.522 -0.32208 44.159 0.96624Z" fill="#FFC224"/>
<path d="M62.3055 0.96624L63.4857 3.34053C63.6466 3.67104 64.0758 3.98806 64.4379 4.04877L66.577 4.40626C67.945 4.63559 68.2668 5.63387 67.2811 6.61866L65.6181 8.29145C65.3364 8.57475 65.1822 9.1211 65.2694 9.51232L65.7455 11.5831C66.121 13.2221 65.256 13.8562 63.8143 12.9996L61.8093 11.8057C61.4472 11.5898 60.8503 11.5898 60.4815 11.8057L58.4765 12.9996C57.0415 13.8562 56.1698 13.2154 56.5453 11.5831L57.0214 9.51232C57.1086 9.1211 56.9543 8.57475 56.6727 8.29145L55.0097 6.61866C54.0307 5.63387 54.3458 4.63559 55.7138 4.40626L57.8529 4.04877C58.2083 3.98806 58.6375 3.67104 58.7984 3.34053L59.9786 0.96624C60.6224 -0.32208 61.6684 -0.32208 62.3055 0.96624Z" fill="#FFC224"/>
<path d="M80.452 0.96624L81.6322 3.34053C81.7931 3.67104 82.2223 3.98806 82.5844 4.04877L84.7235 4.40626C86.0914 4.63559 86.4133 5.63387 85.4276 6.61866L83.7646 8.29145C83.4829 8.57475 83.3287 9.1211 83.4159 9.51232L83.892 11.5831C84.2675 13.2221 83.4025 13.8562 81.9607 12.9996L79.9557 11.8057C79.5936 11.5898 78.9968 11.5898 78.628 11.8057L76.623 12.9996C75.188 13.8562 74.3163 13.2154 74.6918 11.5831L75.1679 9.51232C75.2551 9.1211 75.1008 8.57475 74.8192 8.29145L73.1562 6.61866C72.1772 5.63387 72.4923 4.63559 73.8603 4.40626L75.9994 4.04877C76.3548 3.98806 76.784 3.67104 76.9449 3.34053L78.1251 0.96624C78.7688 -0.32208 79.8149 -0.32208 80.452 0.96624Z" fill="#FFC224"/>
</svg>
