<svg width="22" height="19" viewBox="0 0 22 19" fill="none" xmlns="http://www.w3.org/2000/svg">
<path d="M1.62256 8.99472C1.62256 10.0785 2.50114 10.9571 3.58491 10.9571C5.21058 10.9571 6.52845 9.63921 6.52845 8.01354V4.08883C6.52845 2.46316 5.21058 1.14529 3.58491 1.14529C2.50113 1.14529 1.62256 2.02387 1.62256 3.10765V8.99472Z" stroke="#2A353D" stroke-width="1.47177" stroke-linecap="round" stroke-linejoin="round"/>
<path d="M14.8476 13.6001L14.5863 12.7562C14.3722 12.0647 14.2652 11.719 14.3475 11.4459C14.4141 11.225 14.5603 11.0346 14.7595 10.9093C15.0058 10.7544 15.3784 10.7544 16.1235 10.7544H16.5199C19.0416 10.7544 20.3024 10.7544 20.8979 10.008C20.966 9.92267 21.0265 9.83196 21.0789 9.73681C21.537 8.9043 21.0162 7.78283 19.9745 5.53989C19.0185 3.48159 18.5406 2.45244 17.6531 1.84668C17.5671 1.78804 17.4789 1.73273 17.3884 1.68088C16.4541 1.14529 15.2964 1.14529 12.9811 1.14529H12.4789C9.67383 1.14529 8.27129 1.14529 7.39987 1.98963C6.52845 2.83396 6.52845 4.1929 6.52845 6.91077V7.86603C6.52845 9.29433 6.52845 10.0085 6.78192 10.6621C7.0354 11.3158 7.52076 11.8532 8.49148 12.9281L12.5059 17.3734C12.6066 17.4849 12.6569 17.5407 12.7013 17.5793C13.1156 17.9398 13.755 17.8993 14.1173 17.4894C14.1561 17.4455 14.1985 17.3839 14.2833 17.2606C14.416 17.0678 14.4823 16.9714 14.5401 16.8759C15.0577 16.0208 15.2142 15.0051 14.9772 14.0408C14.9507 13.9331 14.9163 13.822 14.8476 13.6001Z" stroke="#2A353D" stroke-width="1.47177" stroke-linecap="round" stroke-linejoin="round"/>
</svg>
