<svg width="30" height="30" viewBox="0 0 30 30" fill="none" xmlns="http://www.w3.org/2000/svg">
<circle cx="15" cy="15" r="15" fill="#F7F7F7"/>
<path d="M11 18.1111C11.7778 18.8889 13.3333 19.6667 14.8889 19.6667M14.8889 19.6667C16.8333 19.6667 18.7778 19.2778 18.7778 17.3333C18.7778 15.3889 16.8718 15 14.8889 15M14.8889 19.6667V15M14.8889 19.6667V22M14.8889 15C12.9444 15 11 14.6111 11 12.6667C11 10.7222 12.9444 10.3333 14.8889 10.3333M14.8889 15V10.3333M14.8889 10.3333C16.4444 10.3333 18 11.1111 18.7778 11.8889M14.8889 10.3333V8" stroke="black" stroke-width="1.5"/>
</svg>
