<svg width="87" height="29" viewBox="0 0 87 29" fill="none" xmlns="http://www.w3.org/2000/svg">
<path d="M42.9529 1.30295L37.1917 28.2375H30.2232L35.9849 1.30295H42.9529ZM72.2688 18.6949L75.9363 8.58044L78.047 18.6949H72.2688ZM80.0461 28.2375H86.4894L80.8603 1.30295H74.9168C73.5773 1.30295 72.4481 2.07958 71.9483 3.27725L61.4928 28.2375H68.8109L70.2636 24.215H79.2022L80.0461 28.2375ZM61.8557 19.4443C61.886 12.3358 52.029 11.942 52.095 8.76581C52.1162 7.80077 53.037 6.77273 55.0495 6.50981C56.0473 6.38138 58.8006 6.27718 61.9217 7.71535L63.1424 2.00144C61.4662 1.39503 59.3089 0.811035 56.6246 0.811035C49.736 0.811035 44.8902 4.47008 44.8514 9.71389C44.8072 13.5916 48.313 15.7537 50.9488 17.0453C53.6665 18.3653 54.577 19.2116 54.5637 20.3911C54.5449 22.1982 52.3967 22.9985 50.3963 23.0288C46.8912 23.0833 44.8593 22.0813 43.24 21.3265L41.9751 27.2312C43.6059 27.9776 46.6107 28.627 49.7221 28.6603C57.0456 28.6603 61.8339 25.0443 61.8557 19.4443ZM32.9959 1.30295L21.7056 28.2375H14.3409L8.78445 6.74183C8.44763 5.41997 8.15381 4.93412 7.1294 4.37557C5.45376 3.46566 2.68766 2.61451 0.255371 2.08504L0.420151 1.30295H12.2769C13.7872 1.30295 15.146 2.30797 15.4919 4.04783L18.427 19.6351L25.6754 1.30295H32.9959Z" fill="#1434CB"/>
</svg>
